<svg width="828" height="235" xmlns="http://www.w3.org/2000/svg"><g fill="#333" fill-rule="evenodd"><path d="M170.343 107.495L156.065 92.3c22.051 7.892 40.496-2.629 60.315-7.113-12.797-1.606-19.291-11.536-27.774-18.519-2.508-2.065-5.141-4.085-7.997-5.598-7.008-3.715-14.096-6.323-22.53-5.938-17.366.792-29.188 11.557-42.132 21.119 3.504 3.908 9.733 1.702 13.216 6.528-9.223 1.902-16.879-2.467-26.362-3.911 3.418 8.691 6.022 16.285 9.346 23.547 5.456 11.92 13.408 21.749 25.489 27.666.72.262 1.296.741 1.866 1.229l.068.031c11.08.367 20.744 7.247 32.077 6.861 2.809-.096 5.877 2.855 8.487-.191 2.649-3.092.493-5.998-.919-8.944-3.365-7.017-6.969-13.949-8.872-21.572M134.786 133.78c26.597 8.167 43.595 28.937 46.764 54.189 1.638 13.063-.28 26.375 5.275 40.657-20.147-14.66-42.5-23.288-50.088-47.834-4.793-15.506-5.482-30.73-1.951-47.012M54.054 234.997c-2.452-3.664-.011-5.756.292-8.11.859-6.69 1.846-13.403.552-20.125-3.944-20.494 3.983-36.265 19.193-49.33 6.145-5.278 13.268-9.385 19.517-17.652.744 8.597.989 15.341 1.965 21.978 3.137 21.336-2.747 38.954-20.233 52.355-7.813 5.988-16.006 11.654-21.286 20.884M173.177 21.644c-2.6 6.865-6.225 9.01-9.618 10.634-8.387 4.013-14.866 10.236-21.282 16.63-10.943 10.91-23.934 14.57-38.984 11.233-3.837-.851-7.72-1.503-11.532-2.237-3.71-12.978 9.479-32.913 23.373-35.428a45.284 45.284 0 0 1 5.54-.673c17.072-.95 33.809 6.695 52.503-.16"/><path d="M139.57 131.341c2.133-2.119 4.825-3.524 7.532-2.006 9.332 5.232 20.034 4.735 29.992 7.615 2.59-1.357 3.282-3.405 1.11-5.497-4.561-4.393-4.774-10.945-8.28-15.875-1.76-2.473-.115-5.392.418-8.083 3.968 3.501 6.036 8.161 7.73 12.991 3.356 9.563 6.841 19.055 12.576 28.056-13.703-11.85-32.511-6.067-46.906-14.732-1.385-.834-2.781-1.647-4.172-2.469M137.636 130.081l1.865 1.23-1.865-1.23M69.225 84.573c-10.428-7.816-13.955-19.134-22.03-27.04l24.583 9.132c.614 5.981-2.458 10.955-2.553 17.908m57.947 105.8c-2.172-10.86-1.676-21.516-.758-32.112 1.572-18.148-3.692-34.048-14.887-48.168-3.721-4.693-8.053-8.96-9.364-14.41-2.487-1.197-1.624 3.203-4.915.743 4.6-19.3-14.267-34.47-9.373-55.598-7.36 4.641-5.23 12.668-11.275 18.651C72.13 25.055 43.21 16.342 20.266 0c1.007 17.3 2.637 33.045 13.855 47.875C20.359 44.751 10.77 38.4 0 30.805 1.93 44.846 4.596 56.74 10.164 67.86c5.043 10.071 13.309 15.806 24.173 18.431 7.119 1.72 14.159 2.484 21.445 1.567 3.68-.463 7.5-.62 10.878 2.57l.815 6.547c-5.218 12.782-16.405 18.881-25.231 27.196-4.443 4.187-8.47 8.62-10.126 14.798-3.004 11.201.128 22.43-.66 34.106 5.102-6.783 12.422-8.397 19.446-10.688 5.466-1.782 9.529-5.312 13.06-10.005 8.164-10.846 6.97-22.768 4.907-34.852-.946-5.53-1.217-5.485.337-9.889 4.275 13.121 8.488 25.915 15.73 38.025 5.25-5.532 4.912-12.923 10.886-18.824-2.673 28.812 16.358 44.99 31.348 63.531M813.32 161.359c-4.54 1.866-8.487 1.693-12.647.46.307-18.407-.779-36.28.28-54.164.527-8.908-7.075-17.301-15.947-18.096-5.168-.464-10.212.095-15.123 1.938-11.605 4.354-14.142 7.727-14.152 19.984-.013 15.359-.913 30.774 2.578 45.948 1.135 4.93-2.015 6.097-5.963 6.326-4.605.267-8.952-.258-8.105-6.438 1.173-8.562 1.688-17.093 1.597-25.754-.315-30.068-.31-60.14-.294-90.21.004-8.538-1.317-16.91-3.095-25.162-1.111-5.164 1.142-8.011 5.228-8.98 4.456-1.058 6.041 2.9 6.563 6.425.781 5.283 1.32 10.655 1.327 15.99.024 16.548-.356 33.096-.345 49.645.004 4.458-.968 9.468 3.705 12.76 4.005-.566 6.58-3.51 9.717-5.39 13.659-8.19 30.989-5.283 39.558 6.652 1.678 2.336 3.242 4.907 3.107 7.656-.649 13.268 2.71 26.439.861 39.709-.942 6.768 2.069 13.323 1.15 20.7M326.56 159.352c-5.376 2.288-9.406 1.8-13.748 1.014-.303-1.448-.797-2.556-.722-3.623 2.87-40.702 1.222-81.53 3.405-122.26.472-8.819.969-18.332-6.613-25.014 1.8-4.277 4.287-6.788 8.162-8.209 4.453 2.135 6.2 5.583 6.477 10.502 1.837 32.504 2.713 65.055 1.729 97.564-.504 16.693-1.406 33.29 1.31 50.026M227.704 150.371c1.625-3.157 3.58-5.263 6.76-5.749 3.1.788 3.576 3.612 4.947 5.68 6.742 10.18 21.205 11.575 29.734 2.876 5.645-5.757 4.973-15.508-1.555-21.107-4.13-3.542-9.01-5.74-14.146-7.414-5.802-1.892-11.218-4.557-16.062-8.285-9.992-7.688-10.969-18.35-2.602-27.86 9.671-10.996 25.081-13.318 37.403-5.468 2.92 1.86 6.41 4.106 3.137 8.282-3.024 3.86-6.018 1.903-8.938-.538-9.807-8.197-16.812-9.17-24.28-3.49-7.043 5.357-6.704 14.933.566 20.01 7.75 5.413 17.016 7.47 25.29 11.715 13.968 7.17 18.278 24.932 8.2 35.445-4.55 4.744-10.095 8.23-17.207 7.957-3.023-.116-6.056.037-9.084.042-11.215.016-14.749-1.879-22.163-12.096M391.546 109.017c3.618-6.325 6.54-12.708 6.06-20.413-.38-6.1 3.505-7.58 11.885-4.128-15.17 24.77-23.456 52.757-38.64 78.033-14.24-25.048-24.228-51.68-37.966-76.407 2.423-3.115 5.968-3.227 8.27-4.96 4.814 1.466 6.724 4.11 7.598 8.99 1.849 10.335 7.696 19.316 11.682 28.94 2.395 5.785 5.318 11.355 8.103 16.97 1.287 2.598 1.79 6.054 5.853 6.026 4.125-.028 4.506-3.531 5.612-6.185 2.954-7.096 5.73-14.267 8.577-21.408 1.106-.551.705-1.967 1.534-2.677v-.001c.889-.716.547-2.064 1.432-2.78M645.784 87.289c7.873-2.901 15.997-11.043 24.598-.464-2.762 4.828-5.765 6.725-11.026 4.262-8.147-3.813-13.482-.89-13.91 7.98-.39 8.102.155 16.272.671 24.388.794 12.484-2.749 24.985 1.158 36.792-2.915 2.48-5.564 2.724-8.012 3.115-4.89.78-8.092-1.19-7.028-6.54 3.316-16.661 1.311-33.48 1.807-50.22.117-3.944.047-7.954-1.367-11.757-1.138-3.06-2.916-6.25.785-8.765 3.371-2.29 6.83-2.943 10.141.312.454.445 1.258.533 2.183.897M480.154 86.472c3.077-2.655 6.29-5.766 11.464-1.447 3.349 2.794 6.534-.29 9.55-1.885 6.921-3.66 11.785-2.686 16.42 3.538-1.933 4.57-4.75 5.793-9.8 3.784-9.809-3.9-15.303-.48-15.17 9.91.23 18.356-1.75 36.813 1.954 55.056.365 1.802.575 3.72-1.024 5.81-3.615 1.762-7.606.901-12.459.204.82-24.873 2.454-49.346-.935-74.97M301.262 159.648c-4.83 4.13-9.069 1.472-12.892.392-1.736-1.906-1.33-3.56-1.063-5.149 3.106-18.522 1.658-37.202 1.955-55.82.041-2.56.11-5.137-1.19-7.51-2.704-4.934-.22-7.767 4.315-8.722 4.973-1.045 6.744 2.838 6.944 6.716.518 10.01 1.14 20.082.566 30.063-.764 13.303 2.821 26.39 1.365 40.03M618.389 161.263c-3.386 1.609-7.147 1.264-10.898.179-2.13-3.47-1.272-7.02-.921-10.396 1.566-15.086 1.243-30.196.694-45.301-.142-3.918-.801-7.873-1.71-11.694-1.814-7.637-1.303-8.632 7.11-10.928 4.004 1.797 4.69 5.639 4.548 9.297-.55 14.1 1.486 28.139.559 42.269-.451 6.879.674 13.868 1.205 20.799.14 1.826.978 3.63-.587 5.775M729.362 150.252c-8.068 8.537-18.03 10.315-28.881 7.817-13.532-3.114-24.574-16.727-26.157-31.337-1.934-17.872 4.57-35.522 21.072-41.529 12.243-1.202 22.502 2.322 30.219 12.34 2.1 2.726 4.824 4.788 8.249 1.625 2.651-2.45 2.857-5.256.633-8.08-.85-1.08-1.897-2.173-3.096-2.783-11.994-6.093-24.183-10.94-37.727-4.72l-.005.001c-3.702-.126-6.737 1.607-9.692 3.524-13.783 8.941-19.825 22.728-19.825 38.057 0 26.041 24.981 49.531 56.775 36.544 6.688-2.73 11.094-8.095 15.577-14.394-4.611-1.179-5.707 1.417-7.142 2.935M390.114 111.798l-1.534 2.677 1.534-2.677"/><path d="M391.546 109.017l-1.431 2.78 1.43-2.78M588.395 129.885c-.522 16.806-12.557 29.444-32.722 30.938-1.62.12-3.257.083-4.883.037-15.632-.454-17.984-3.035-18.02-18.526-.028-12.086-.587-24.171-.688-36.26-.041-5.086-.126-10.28 2.405-15 7.99-3.542 16.052-6.781 25.085-5.861 22.356 7.926 29.553 21.18 28.823 44.672m.639-33.72c-10.028-12.385-22.787-16.123-37.95-13.858-5.997-.567-10.812 3.775-16.62 3.996-.475-1.774-1.403-3.562-1.355-5.322.442-16.306-1.186-32.58-.431-48.908.403-8.717.334-17.626-3.28-25.737-8.046-1.414-10.61 1.022-8.968 8.274 1.023 4.518 2.865 8.774 2.839 13.603-.192 35.203-.118 70.408-.367 105.61-.047 6.679-.592 13.466-1.94 19.99-1.3 6.295 1.409 8.233 6.764 8.377 6.788.18 13.393 1.318 20.052 2.615 16.78 3.27 40.69-8.658 47.513-24.255 6.9-15.772 4.84-30.675-6.257-44.384M446.434 84.04c10.662 4.484 14.01 9.577 10.573 16.08-21.96 3.044-33.841 2.822-38.635-.98 4.127-12.441 17.567-19.514 28.062-15.1m18.34 63.753c-4.267 4.655-8.122 9.356-15.486 9.443-16.275.193-25.581-6.25-30.705-21.931-2.186-6.693-1.297-13.607-1.991-20.267-.801-7.687 1.647-8.535 7.464-8.473 13.76.146 27.523.247 41.283.443 2.395.034 4.644-.11 6.929-1.946 1.264-3.404.227-6.232-1.011-9.05-8.375-19.075-40.141-24.104-53.563-8.16-10.792 12.82-15.156 27.768-11.634 44.428 1.95 9.229 4.986 17.932 13.672 23.498 11.404 7.308 23.43 8.713 36.15 4.606 9.27-2.992 13.726-10.515 19.312-19.553-6.643.568-8.076 4.404-10.42 6.962M272.63 203.931c-.367.046-.86.119-1.48.218-.62.1-1.12.241-1.503.425-.459.23-.784.555-.975.975-.192.421-.287.915-.287 1.48v2.525c0 1.836.011 3.075.034 3.718.023.642.05 1.17.08 1.583a34.628 34.628 0 0 1-6.081 2.112c-2.02.49-4 .734-5.944.734-2.08 0-4.085-.39-6.013-1.17a15.04 15.04 0 0 1-5.048-3.328c-1.454-1.454-2.609-3.22-3.466-5.301-.856-2.081-1.285-4.407-1.285-6.977 0-2.478.41-4.777 1.228-6.896.818-2.12 1.977-3.959 3.477-5.52 1.453-1.53 3.186-2.719 5.198-3.568 2.012-.85 4.165-1.274 6.46-1.274 1.836 0 3.435.222 4.796.666 1.362.444 2.563.979 3.603 1.606l.941-1.56h1.836l.207 11.383h-1.882a32.145 32.145 0 0 0-1.193-3.707 12.955 12.955 0 0 0-1.836-3.27 8.483 8.483 0 0 0-2.743-2.306c-1.078-.574-2.367-.861-3.867-.861-1.637 0-3.098.333-4.383.998-1.285.666-2.402 1.656-3.35 2.972-.934 1.27-1.653 2.854-2.158 4.75-.505 1.898-.757 4.017-.757 6.358 0 2.065.248 4.012.746 5.84.497 1.828 1.22 3.408 2.168 4.74a10.36 10.36 0 0 0 3.557 3.212c1.423.78 3.037 1.17 4.843 1.17 1.346 0 2.574-.206 3.683-.62 1.11-.412 1.893-.848 2.352-1.307.123-.796.188-1.599.195-2.41.008-.81.012-1.5.012-2.065v-1.79c0-.643-.088-1.213-.264-1.71-.176-.497-.54-.86-1.09-1.09-.505-.23-1.19-.402-2.054-.517a31.239 31.239 0 0 0-2.031-.218v-1.675h14.274v1.675zm23.409 12.6c-.72.26-1.35.47-1.894.63-.543.161-1.159.242-1.847.242-1.193 0-2.146-.28-2.857-.838-.712-.558-1.167-1.373-1.366-2.444h-.137c-.995 1.101-2.062 1.943-3.202 2.524-1.14.582-2.513.872-4.12.872-1.698 0-3.094-.52-4.188-1.56-1.093-1.04-1.64-2.402-1.64-4.085 0-.872.122-1.652.367-2.34a5.595 5.595 0 0 1 1.101-1.86c.383-.459.888-.868 1.515-1.228.627-.36 1.216-.646 1.767-.86.689-.26 2.085-.742 4.188-1.446 2.104-.704 3.523-1.255 4.257-1.652v-2.272c0-.2-.042-.582-.126-1.148a4.805 4.805 0 0 0-.54-1.606 4.57 4.57 0 0 0-1.296-1.48c-.558-.421-1.35-.632-2.375-.632-.704 0-1.358.119-1.962.356-.604.237-1.029.486-1.274.746 0 .306.073.757.218 1.354.146.597.218 1.147.218 1.652 0 .536-.24 1.025-.723 1.47-.482.443-1.151.665-2.008.665-.765 0-1.327-.272-1.687-.815a3.233 3.233 0 0 1-.539-1.825c0-.703.249-1.376.746-2.02.497-.642 1.144-1.215 1.94-1.72.688-.429 1.522-.792 2.5-1.09a9.815 9.815 0 0 1 2.87-.448c1.285 0 2.405.088 3.361.264a6.173 6.173 0 0 1 2.605 1.136c.78.566 1.373 1.335 1.779 2.306.405.972.608 2.223.608 3.753 0 2.187-.023 4.127-.069 5.817-.046 1.69-.069 3.538-.069 5.543 0 .596.103 1.07.31 1.422.207.352.524.65.952.895.23.138.593.215 1.09.23a49.64 49.64 0 0 0 1.527.023v1.469zm-8.01-12.118c-1.3.383-2.44.758-3.42 1.125-.978.367-1.889.826-2.73 1.377-.765.52-1.37 1.136-1.813 1.847-.444.712-.666 1.557-.666 2.536 0 1.27.333 2.203.999 2.8.665.597 1.51.895 2.536.895 1.086 0 2.042-.264 2.868-.792a8.348 8.348 0 0 0 2.089-1.87l.137-7.918zm27.585-7.183c0 .78-.191 1.473-.573 2.077-.383.605-.972.907-1.768.907-.856 0-1.51-.222-1.962-.666-.451-.444-.677-.933-.677-1.469 0-.336.027-.642.08-.918.054-.275.104-.55.15-.826-.72 0-1.56.291-2.525.872-.963.582-1.782 1.408-2.455 2.479v13.173c0 .535.103.971.31 1.308.206.336.531.589.975.757.382.153.876.268 1.48.344.605.077 1.129.13 1.572.161v1.515h-11.933v-1.515l1.09-.092c.375-.03.7-.092.975-.183.428-.138.746-.379.952-.723.207-.345.31-.792.31-1.343v-13.976c0-.474-.11-.94-.332-1.4a2.785 2.785 0 0 0-.93-1.101 3.131 3.131 0 0 0-1.033-.402 9.16 9.16 0 0 0-1.285-.172v-1.492l7.528-.505.32.322v3.19H306c.948-1.24 2.004-2.18 3.167-2.823 1.162-.643 2.226-.964 3.19-.964.963 0 1.747.314 2.352.94.604.628.906 1.47.906 2.525zm26.713 19.3l-7.894.505-.345-.32v-2.112l-.183-.046c-.796.887-1.779 1.614-2.95 2.18-1.17.566-2.374.85-3.614.85a8.556 8.556 0 0 1-3.729-.861 9.418 9.418 0 0 1-3.132-2.421c-.903-1.056-1.618-2.326-2.146-3.81-.528-1.484-.792-3.121-.792-4.911 0-1.637.283-3.19.85-4.659.565-1.469 1.345-2.754 2.34-3.855.933-1.025 2.077-1.844 3.43-2.456 1.355-.612 2.736-.918 4.143-.918 1.056 0 2.092.134 3.11.402 1.017.267 1.893.608 2.628 1.021v-7.872c0-.642-.108-1.227-.322-1.755-.214-.528-.512-.93-.895-1.205-.428-.29-1.006-.501-1.732-.631-.727-.13-1.511-.226-2.353-.287v-1.423l9.249-.528.344.345v30.522c0 .535.103.99.31 1.365.206.375.509.693.906.953.291.183.712.298 1.263.344.55.046 1.055.077 1.514.092v1.492zm-8.284-3.97V199.32a5.92 5.92 0 0 0-.597-1.285 5.747 5.747 0 0 0-1.033-1.263 5.874 5.874 0 0 0-1.56-.952c-.597-.253-1.293-.379-2.089-.379-.918 0-1.763.237-2.536.712-.772.474-1.457 1.155-2.054 2.042-.566.857-1.013 1.947-1.342 3.27-.33 1.324-.494 2.789-.494 4.395 0 1.285.123 2.452.368 3.5a9.25 9.25 0 0 0 1.239 2.926 6.384 6.384 0 0 0 2.054 2.065c.834.52 1.824.78 2.972.78 1.224 0 2.237-.267 3.04-.803a9.836 9.836 0 0 0 2.032-1.767zm30.59-.94c-.948 1.805-2.218 3.243-3.809 4.314-1.59 1.07-3.42 1.606-5.485 1.606-1.82 0-3.415-.32-4.785-.964-1.369-.642-2.497-1.514-3.385-2.616-.887-1.101-1.549-2.386-1.985-3.855a16.287 16.287 0 0 1-.654-4.659c0-1.469.234-2.91.7-4.326a12.205 12.205 0 0 1 2.054-3.82 9.94 9.94 0 0 1 3.248-2.629c1.292-.665 2.742-.998 4.348-.998 1.653 0 3.068.26 4.246.78 1.178.52 2.134 1.232 2.869 2.135.703.856 1.227 1.866 1.572 3.029.344 1.163.516 2.425.516 3.787v1.514h-14.986c0 1.484.142 2.83.425 4.04.283 1.208.73 2.271 1.342 3.19a6.386 6.386 0 0 0 2.341 2.1c.964.512 2.111.768 3.442.768 1.362 0 2.536-.318 3.523-.952.987-.635 1.94-1.779 2.857-3.431l1.607.986zm-5.071-8.63c0-.856-.073-1.774-.218-2.753-.145-.98-.379-1.798-.7-2.456a4.664 4.664 0 0 0-1.446-1.721c-.612-.444-1.4-.666-2.363-.666-1.607 0-2.942.67-4.005 2.008-1.063 1.34-1.641 3.202-1.733 5.589h10.465zm32.68 13.954h-11.085v-1.515c.352-.03.738-.061 1.16-.092.42-.03.768-.092 1.043-.183.429-.138.746-.379.953-.723.206-.345.31-.792.31-1.343v-11.635c0-1.607-.38-2.846-1.136-3.718-.758-.872-1.68-1.308-2.766-1.308-.81 0-1.553.126-2.226.379a7.893 7.893 0 0 0-1.79.93c-.505.351-.906.73-1.205 1.135-.298.406-.516.73-.654.975v13.013c0 .52.107.948.322 1.285.214.336.535.597.963.78.322.153.67.268 1.045.344.374.077.76.13 1.159.161v1.515H367.25v-1.515l1.09-.092c.375-.03.7-.092.975-.183.429-.138.746-.379.953-.723.206-.345.31-.792.31-1.343v-13.976c0-.52-.111-.998-.333-1.434a2.847 2.847 0 0 0-.93-1.067 3.131 3.131 0 0 0-1.032-.402 9.16 9.16 0 0 0-1.285-.172v-1.492l7.527-.505.321.322v3.19h.115c.367-.368.826-.807 1.377-1.32a11.99 11.99 0 0 1 1.56-1.25c.567-.368 1.24-.674 2.02-.919.78-.244 1.66-.367 2.64-.367 2.172 0 3.782.677 4.83 2.031s1.572 3.156 1.572 5.405v11.773c0 .535.092.967.275 1.296.184.33.498.585.941.769.367.153.685.26.953.321.267.062.638.107 1.113.138v1.515zm45.83-19.002c-.903.076-1.814.256-2.732.539-.918.283-1.621.73-2.111 1.343-.321.367-.646.91-.975 1.629-.33.719-.723 1.568-1.182 2.547-.46.98-.926 1.943-1.4 2.892a16.545 16.545 0 0 1-1.836 2.846 32.08 32.08 0 0 0 2.249 2.398c.887.864 1.645 1.488 2.272 1.87.612.352 1.48.65 2.605.895 1.124.245 2.046.383 2.765.413v1.63h-9.455l-3.42-3.902c-.504.551-1.082 1.121-1.732 1.71a12.868 12.868 0 0 1-2.054 1.526 12.52 12.52 0 0 1-2.398 1.079c-.803.26-1.748.39-2.834.39-1.133 0-2.257-.165-3.374-.494a9.055 9.055 0 0 1-3.052-1.572c-.888-.703-1.607-1.606-2.157-2.708-.551-1.101-.827-2.417-.827-3.947 0-1.897.501-3.614 1.504-5.152 1.002-1.538 2.872-3.17 5.61-4.9-1.239-1.637-2.203-3.052-2.891-4.245-.688-1.194-1.033-2.532-1.033-4.016 0-1.056.21-2.024.631-2.903a7.005 7.005 0 0 1 1.779-2.307c.704-.596 1.56-1.063 2.57-1.4a9.666 9.666 0 0 1 3.075-.505c1.224 0 2.3.196 3.225.586.925.39 1.679.898 2.26 1.526a6.043 6.043 0 0 1 1.228 2.02c.283.764.425 1.53.425 2.294 0 1.836-.57 3.416-1.71 4.74-1.14 1.323-2.712 2.512-4.716 3.568a92.25 92.25 0 0 0 4.223 5.313 266.97 266.97 0 0 1 3.97 4.716c1.025-1.637 1.82-3.179 2.386-4.625.567-1.445.85-2.72.85-3.82 0-.49-.356-.877-1.068-1.16-.711-.283-1.694-.554-2.949-.814v-1.63h12.278v1.63zm-16.226-7.459c0-1.56-.344-2.758-1.032-3.591-.689-.834-1.668-1.251-2.938-1.251-.72 0-1.316.145-1.79.436a4.4 4.4 0 0 0-1.216 1.102 4.41 4.41 0 0 0-.666 1.376c-.138.49-.206.926-.206 1.309 0 1.055.275 2.122.826 3.201.55 1.079 1.407 2.383 2.57 3.913 1.576-.888 2.712-1.848 3.408-2.88.696-1.033 1.044-2.238 1.044-3.615zm1.79 21.228a309.866 309.866 0 0 0-4.808-5.932c-1.782-2.15-3.209-3.967-4.28-5.45-1.239.856-2.115 1.862-2.627 3.017-.513 1.155-.77 2.475-.77 3.959 0 2.08.594 3.806 1.78 5.175 1.185 1.37 2.772 2.054 4.761 2.054a8 8 0 0 0 3.294-.723 6.636 6.636 0 0 0 2.65-2.1zm61.794 5.233h-13.517v-1.63c.367-.03.899-.076 1.595-.137.696-.062 1.174-.153 1.434-.276.46-.183.796-.463 1.01-.837.214-.375.321-.861.321-1.458v-11.59h-15.307v11.338c0 .535.088.987.264 1.354.176.367.524.688 1.044.964.26.137.723.275 1.389.413.665.137 1.19.214 1.572.23v1.629h-13.517v-1.63c.367-.03.899-.076 1.595-.137.696-.062 1.174-.153 1.434-.276.46-.183.796-.463 1.01-.837.214-.375.321-.861.321-1.458v-23.5c0-.49-.1-.937-.298-1.342-.2-.406-.543-.723-1.033-.953a8.305 8.305 0 0 0-1.503-.527 8.672 8.672 0 0 0-1.526-.276v-1.63h13.517v1.63a10.23 10.23 0 0 0-1.572.207c-.62.122-1.083.237-1.389.344-.52.183-.868.49-1.044.918a3.65 3.65 0 0 0-.264 1.4v10.097h15.307v-9.868c0-.49-.099-.937-.298-1.342-.199-.406-.543-.723-1.033-.953a8.305 8.305 0 0 0-1.503-.527 8.672 8.672 0 0 0-1.526-.276v-1.63h13.517v1.63a10.23 10.23 0 0 0-1.572.207c-.62.122-1.082.237-1.388.344-.52.183-.868.49-1.044.918a3.65 3.65 0 0 0-.264 1.4v23.477c0 .535.088.987.264 1.354.176.367.524.688 1.044.964.26.137.723.275 1.388.413.666.137 1.19.214 1.572.23v1.629zm26.048-11.544c0 1.591-.253 3.156-.758 4.693-.505 1.538-1.224 2.842-2.157 3.913-1.056 1.224-2.28 2.134-3.672 2.731-1.392.597-2.953.895-4.681.895-1.439 0-2.808-.271-4.108-.815a10.348 10.348 0 0 1-3.466-2.375c-.994-1.025-1.786-2.276-2.375-3.752s-.884-3.133-.884-4.969c0-3.534 1.03-6.425 3.087-8.674 2.058-2.25 4.754-3.374 8.09-3.374 3.167 0 5.78 1.067 7.837 3.202 2.058 2.134 3.087 4.976 3.087 8.525zm-4.75.046c0-1.147-.116-2.36-.345-3.637-.23-1.278-.574-2.36-1.033-3.248-.49-.948-1.132-1.71-1.928-2.283-.795-.574-1.767-.86-2.914-.86-1.178 0-2.184.29-3.018.871-.834.582-1.51 1.377-2.031 2.387-.49.933-.834 1.997-1.033 3.19a21.074 21.074 0 0 0-.298 3.465c0 1.47.119 2.827.356 4.074.237 1.247.615 2.36 1.136 3.339.52.98 1.174 1.748 1.962 2.306.788.559 1.763.838 2.926.838 1.912 0 3.427-.926 4.544-2.777 1.117-1.851 1.675-4.406 1.675-7.665zm46.793 11.498h-11.039v-1.515l1.067-.092c.36-.03.677-.092.952-.183.429-.138.746-.379.953-.723.206-.345.31-.792.31-1.343v-11.681c0-1.591-.364-2.819-1.09-3.683-.727-.865-1.634-1.297-2.72-1.297-.75 0-1.453.115-2.111.344-.658.23-1.262.551-1.813.964-.444.337-.815.7-1.113 1.09-.299.39-.524.716-.677.976v13.058c0 .535.092.975.275 1.32.184.344.497.607.941.791.352.138.67.241.952.31.284.069.655.118 1.114.149v1.515h-10.81v-1.515c.352-.03.693-.061 1.022-.092.329-.03.63-.092.906-.183.429-.138.746-.379.953-.723.206-.345.31-.792.31-1.343v-11.681c0-1.591-.364-2.819-1.09-3.683-.727-.865-1.634-1.297-2.72-1.297a6.18 6.18 0 0 0-2.112.356 6.907 6.907 0 0 0-1.813.975 5.45 5.45 0 0 0-1.124 1.136c-.306.42-.536.738-.688.952v12.967c0 .52.107.956.32 1.308.215.352.536.62.965.803.32.153.65.268.986.344.337.077.712.13 1.125.161v1.515h-10.993v-1.515l1.09-.092c.375-.03.7-.092.976-.183.428-.138.746-.379.952-.723.207-.345.31-.792.31-1.343V199.02c0-.49-.111-.93-.333-1.32a3.034 3.034 0 0 0-.93-.998 3.912 3.912 0 0 0-1.078-.447 6.908 6.908 0 0 0-1.33-.218v-1.492l7.572-.505.322.322v3.235h.16c.383-.382.85-.833 1.4-1.354.55-.52 1.063-.94 1.538-1.262.535-.367 1.205-.673 2.008-.918a8.895 8.895 0 0 1 2.605-.367c1.468 0 2.73.394 3.786 1.182 1.056.788 1.813 1.74 2.272 2.857.55-.535 1.037-1.006 1.457-1.411.421-.406.976-.838 1.664-1.297.582-.398 1.266-.719 2.054-.964.788-.244 1.664-.367 2.628-.367 1.912 0 3.427.627 4.544 1.882 1.117 1.255 1.675 3.182 1.675 5.783v11.498c0 .535.092.975.275 1.32.184.344.498.607.941.791.352.138.7.241 1.045.31.344.069.73.118 1.159.149v1.515zm22.742-5.325c-.948 1.806-2.218 3.244-3.81 4.315-1.59 1.07-3.419 1.606-5.484 1.606-1.82 0-3.416-.32-4.785-.964-1.37-.642-2.498-1.514-3.385-2.616-.888-1.101-1.55-2.386-1.985-3.855a16.287 16.287 0 0 1-.654-4.659c0-1.469.233-2.91.7-4.326a12.205 12.205 0 0 1 2.054-3.82 9.94 9.94 0 0 1 3.247-2.629c1.293-.665 2.742-.998 4.349-.998 1.652 0 3.067.26 4.245.78s2.135 1.232 2.87 2.135c.703.856 1.227 1.866 1.571 3.029.344 1.163.516 2.425.516 3.787v1.514h-14.985c0 1.484.141 2.83.424 4.04.283 1.208.73 2.271 1.343 3.19a6.386 6.386 0 0 0 2.34 2.1c.964.512 2.112.768 3.443.768 1.362 0 2.536-.318 3.523-.952.986-.635 1.939-1.779 2.857-3.431l1.606.986zm-5.072-8.628c0-.857-.072-1.775-.218-2.754-.145-.98-.378-1.798-.7-2.456a4.664 4.664 0 0 0-1.445-1.721c-.612-.444-1.4-.666-2.364-.666-1.607 0-2.941.67-4.005 2.008-1.063 1.34-1.64 3.202-1.732 5.589h10.464zm39.886-.987a7.598 7.598 0 0 1 1.526 2.513c.33.91.494 1.97.494 3.178 0 2.876-1.064 5.248-3.19 7.114-2.127 1.867-4.766 2.8-7.918 2.8-1.453 0-2.907-.225-4.36-.677-1.454-.451-2.708-.998-3.764-1.64l-.987 1.675h-1.835l-.322-11.154h1.86c.382 1.377.83 2.62 1.342 3.73a13.022 13.022 0 0 0 2.03 3.11 9.205 9.205 0 0 0 2.789 2.156c1.063.536 2.299.804 3.706.804 1.056 0 1.978-.138 2.766-.413.788-.276 1.426-.666 1.916-1.17a4.78 4.78 0 0 0 1.09-1.78c.237-.68.356-1.464.356-2.352 0-1.3-.367-2.513-1.102-3.637-.734-1.125-1.828-1.978-3.282-2.559-.994-.398-2.134-.838-3.419-1.32a51.06 51.06 0 0 1-3.328-1.365c-1.836-.826-3.262-1.909-4.28-3.247-1.017-1.34-1.526-3.087-1.526-5.244 0-1.24.253-2.395.758-3.466a9.029 9.029 0 0 1 2.157-2.868c.887-.796 1.935-1.42 3.144-1.87a10.736 10.736 0 0 1 3.786-.678c1.5 0 2.842.23 4.028.689 1.186.459 2.268.994 3.247 1.606l.941-1.56h1.836l.184 10.809h-1.86a41.238 41.238 0 0 0-1.135-3.557 12.574 12.574 0 0 0-1.641-3.076 7.528 7.528 0 0 0-2.41-2.122c-.948-.528-2.111-.792-3.488-.792-1.453 0-2.693.467-3.718 1.4-1.025.933-1.537 2.073-1.537 3.42 0 1.407.329 2.573.987 3.499.657.926 1.614 1.687 2.868 2.283 1.117.536 2.215.999 3.293 1.389a50.4 50.4 0 0 1 3.133 1.25c.918.398 1.801.85 2.65 1.355a9.96 9.96 0 0 1 2.215 1.767zm16.529 14.94h-10.947v-1.515l1.09-.092c.375-.03.7-.092.976-.183.428-.138.745-.379.952-.723.206-.345.31-.792.31-1.343v-13.976c0-.49-.111-.937-.333-1.342a2.96 2.96 0 0 0-.93-1.022c-.29-.183-.71-.34-1.262-.47a9.348 9.348 0 0 0-1.514-.241v-1.492l7.986-.505.321.322v18.45c0 .536.104.98.31 1.332.207.352.532.612.975.78.337.138.666.249.987.333.322.084.681.141 1.079.172v1.515zm-2.892-31.83c0 .871-.287 1.632-.86 2.283-.574.65-1.282.975-2.123.975-.78 0-1.457-.31-2.031-.93-.574-.62-.86-1.327-.86-2.122 0-.842.286-1.576.86-2.203.574-.628 1.25-.941 2.03-.941.873 0 1.588.294 2.147.883.558.59.837 1.274.837 2.054zm30.66 31.83H644.29v-1.515c.352-.03.738-.061 1.159-.092.42-.03.769-.092 1.044-.183.428-.138.746-.379.952-.723.207-.345.31-.792.31-1.343v-11.635c0-1.607-.378-2.846-1.136-3.718-.757-.872-1.679-1.308-2.765-1.308-.811 0-1.553.126-2.226.379a7.893 7.893 0 0 0-1.79.93c-.505.351-.907.73-1.205 1.135-.298.406-.516.73-.654.975v13.013c0 .52.107.948.321 1.285.214.336.536.597.964.78.321.153.67.268 1.044.344.375.077.761.13 1.16.161v1.515h-11.085v-1.515l1.09-.092c.375-.03.7-.092.975-.183.429-.138.746-.379.953-.723.206-.345.31-.792.31-1.343v-13.976c0-.52-.112-.998-.333-1.434a2.847 2.847 0 0 0-.93-1.067 3.131 3.131 0 0 0-1.033-.402 9.16 9.16 0 0 0-1.285-.172v-1.492l7.528-.505.32.322v3.19h.116c.367-.368.826-.807 1.377-1.32a11.99 11.99 0 0 1 1.56-1.25c.566-.368 1.24-.674 2.02-.919.78-.244 1.66-.367 2.639-.367 2.172 0 3.783.677 4.83 2.031 1.049 1.354 1.573 3.156 1.573 5.405v11.773c0 .535.091.967.275 1.296.184.33.497.585.941.769.367.153.685.26.952.321.268.062.64.107 1.113.138v1.515zm13.242.596c-3.274 0-5.837-1.086-7.688-3.258-1.851-2.173-2.777-5.088-2.777-8.744 0-1.591.249-3.08.746-4.464a12.316 12.316 0 0 1 2.169-3.775c.903-1.086 2.035-1.962 3.396-2.628 1.362-.665 2.846-.998 4.452-.998 2.219 0 4.024.532 5.416 1.595 1.393 1.063 2.089 2.513 2.089 4.349 0 .765-.184 1.442-.55 2.031-.368.589-.972.884-1.814.884-.903 0-1.603-.23-2.1-.689-.497-.459-.746-.971-.746-1.538 0-.688.092-1.396.276-2.122.183-.727.29-1.259.321-1.595a2.03 2.03 0 0 0-1.228-.953 6.164 6.164 0 0 0-1.755-.24c-.735 0-1.435.156-2.1.47-.666.313-1.312.891-1.94 1.732-.565.765-1.024 1.798-1.376 3.099-.352 1.3-.528 2.853-.528 4.658 0 2.846.63 5.168 1.893 6.965 1.262 1.798 2.918 2.697 4.969 2.697 1.484 0 2.727-.36 3.729-1.079 1.002-.719 1.931-1.797 2.788-3.236l1.469.964c-1.01 1.806-2.34 3.236-3.993 4.292-1.653 1.056-3.358 1.583-5.118 1.583zm30.982-5.92c-.949 1.805-2.219 3.243-3.81 4.314-1.591 1.07-3.42 1.606-5.485 1.606-1.82 0-3.415-.32-4.785-.964-1.37-.642-2.497-1.514-3.385-2.616-.887-1.101-1.549-2.386-1.985-3.855a16.287 16.287 0 0 1-.654-4.659c0-1.469.233-2.91.7-4.326a12.205 12.205 0 0 1 2.054-3.82 9.94 9.94 0 0 1 3.247-2.629c1.293-.665 2.743-.998 4.35-.998 1.652 0 3.067.26 4.245.78s2.134 1.232 2.868 2.135c.704.856 1.228 1.866 1.572 3.029.345 1.163.517 2.425.517 3.787v1.514H684.06c0 1.484.141 2.83.425 4.04.283 1.208.73 2.271 1.342 3.19a6.386 6.386 0 0 0 2.34 2.1c.965.512 2.112.768 3.443.768 1.362 0 2.536-.318 3.523-.952.987-.635 1.94-1.779 2.857-3.431l1.607.986zm-5.072-8.63c0-.856-.073-1.774-.218-2.753-.146-.98-.379-1.798-.7-2.456a4.664 4.664 0 0 0-1.446-1.721c-.612-.444-1.4-.666-2.364-.666-1.606 0-2.941.67-4.004 2.008-1.064 1.34-1.641 3.202-1.733 5.589h10.465zM723.494 218.349v-3.252h6.504v-25.664l-6.504 1.626v-3.34l10.855-2.703v30.081h6.504v3.252h-17.359zm26.807-.198v-3.67c2.754.953 5.097 1.429 7.031 1.429 2.695 0 4.801-1.146 6.317-3.439 1.516-2.292 2.274-5.482 2.274-9.569-2.197 2.71-4.694 4.065-7.492 4.065-2.74 0-5.061-1.007-6.966-3.021-1.904-2.014-2.856-4.472-2.856-7.372 0-3.325 1.014-6.083 3.043-8.273 2.029-2.19 4.581-3.285 7.658-3.285 3.53 0 6.313 1.418 8.35 4.252 2.035 2.835 3.053 6.713 3.053 11.635 0 5.595-1.241 10.037-3.724 13.326-2.483 3.289-5.841 4.933-10.074 4.933-1.7 0-3.904-.337-6.614-1.01zm2.637-22.434c0 2.52.56 4.505 1.68 5.955 1.121 1.45 2.655 2.175 4.604 2.175 1.83 0 3.394-.623 4.69-1.868 1.297-1.245 1.945-2.746 1.945-4.504 0-2.769-.626-4.999-1.878-6.69-1.253-1.693-2.897-2.539-4.933-2.539-1.89 0-3.38.67-4.472 2.01-1.09 1.341-1.636 3.161-1.636 5.461zm27.465 22.632c.425-2.534 1.03-4.724 1.813-6.57.784-1.846 2.172-4.38 4.164-7.602l8.877-14.283h-16.743v-4.065h20.874v4.065c-8.335 12.29-13 21.775-13.997 28.455h-4.988zm29.422-16.853c2.065-2.68 4.665-4.021 7.8-4.021 2.842 0 5.167.941 6.976 2.823 1.81 1.883 2.714 4.296 2.714 7.24 0 3.384-1.014 6.167-3.043 8.35-2.03 2.183-4.603 3.274-7.724 3.274-3.589 0-6.394-1.443-8.415-4.329-2.022-2.885-3.032-6.892-3.032-12.019 0-5.64 1.16-10.02 3.482-13.14 2.322-3.12 5.592-4.68 9.811-4.68 1.934 0 4.35.41 7.251 1.23v3.78c-3.061-1.172-5.566-1.758-7.515-1.758-5.537 0-8.305 4.417-8.305 13.25zm13.14 7.01c0-2.462-.554-4.395-1.66-5.802-1.106-1.406-2.64-2.109-4.603-2.109-1.83 0-3.406.615-4.724 1.846-1.318 1.23-1.977 2.71-1.977 4.438 0 2.725.626 4.911 1.878 6.56 1.253 1.647 2.912 2.471 4.977 2.471 1.86 0 3.343-.67 4.45-2.01 1.105-1.34 1.658-3.139 1.658-5.395z"/></g></svg>