<?xml version="1.0" encoding="UTF-8"?>
<svg width="828px" height="235px" viewBox="0 0 828 235" version="1.1" xmlns="http://www.w3.org/2000/svg" xmlns:xlink="http://www.w3.org/1999/xlink">
    <!-- Generator: Sketch 48.2 (47327) - http://www.bohemiancoding.com/sketch -->
    <title>Group</title>
    <desc>Created with Sketch.</desc>
    <defs></defs>
    <g id="Page-1" stroke="none" stroke-width="1" fill="none" fill-rule="evenodd">
        <g id="Group">
            <path d="M170.343,107.495 C165.989,102.861 161.634,98.226 156.065,92.3 C178.116,100.192 196.561,89.671 216.38,85.187 C203.583,83.581 197.089,73.651 188.606,66.668 C186.098,64.603 183.465,62.583 180.609,61.07 C173.601,57.355 166.513,54.747 158.079,55.132 C140.713,55.924 128.891,66.689 115.947,76.251 C119.451,80.159 125.68,77.953 129.163,82.779 C119.94,84.681 112.284,80.312 102.801,78.868 C106.219,87.559 108.823,95.153 112.147,102.415 C117.603,114.335 125.555,124.164 137.636,130.081 C138.356,130.343 138.932,130.822 139.502,131.31 L139.57,131.341 C150.65,131.708 160.314,138.588 171.647,138.202 C174.456,138.106 177.524,141.057 180.134,138.011 C182.783,134.919 180.627,132.013 179.215,129.067 C175.85,122.05 172.246,115.118 170.343,107.495" id="Fill-1" fill="#000000"></path>
            <path d="M134.7858,133.7796 C161.3828,141.9466 178.3808,162.7166 181.5498,187.9686 C183.1878,201.0316 181.2708,214.3436 186.8248,228.6256 C166.6778,213.9656 144.3248,205.3376 136.7368,180.7916 C131.9438,165.2856 131.2548,150.0616 134.7858,133.7796" id="Fill-3" fill="#000000"></path>
            <path d="M54.0539,234.9974 C51.6019,231.3334 54.0429,229.2414 54.3459,226.8864 C55.2049,220.1964 56.1919,213.4844 54.8979,206.7624 C50.9539,186.2684 58.8809,170.4974 74.0909,157.4324 C80.2359,152.1544 87.3589,148.0474 93.6079,139.7804 C94.3519,148.3774 94.5969,155.1214 95.5729,161.7584 C98.7099,183.0944 92.8259,200.7124 75.3399,214.1134 C67.5269,220.1014 59.3339,225.7674 54.0539,234.9974" id="Fill-5" fill="#000000"></path>
            <path d="M173.1769,21.6439 C170.5779,28.5089 166.9519,30.6549 163.5589,32.2779 C155.1719,36.2909 148.6929,42.5139 142.2769,48.9089 C131.3339,59.8189 118.3429,63.4779 103.2929,60.1409 C99.4559,59.2899 95.5739,58.6379 91.7609,57.9039 C88.0509,44.9259 101.2399,24.9909 115.1339,22.4759 C116.9619,22.1449 118.8199,21.9059 120.6739,21.8029 C137.7459,20.8539 154.4829,28.4979 173.1769,21.6439" id="Fill-7" fill="#000000"></path>
            <path d="M139.5695,131.3412 C141.7035,129.2222 144.3945,127.8172 147.1025,129.3352 C156.4335,134.5672 167.1355,134.0702 177.0935,136.9502 C179.6835,135.5932 180.3765,133.5452 178.2045,131.4532 C173.6425,127.0602 173.4305,120.5082 169.9235,115.5782 C168.1635,113.1052 169.8085,110.1862 170.3425,107.4952 C174.3105,110.9962 176.3785,115.6562 178.0725,120.4862 C181.4275,130.0492 184.9135,139.5412 190.6475,148.5422 C176.9445,136.6922 158.1365,142.4752 143.7415,133.8102 C142.3575,132.9762 140.9605,132.1632 139.5695,131.3412" id="Fill-9" fill="#000000"></path>
            <path d="M137.6364,130.0814 C138.2584,130.4914 138.8804,130.9014 139.5014,131.3104 C138.8804,130.9004 138.2584,130.4914 137.6364,130.0814" id="Fill-11" fill="#000000"></path>
            <polygon id="Clip-14" points="0 0.0001 127.1718 0.0001 127.1718 190.3731 0 190.3731"></polygon>
            <path d="M69.2248,84.5731 C58.7968,76.7571 55.2698,65.4391 47.1948,57.5321 C55.2988,60.5431 63.4028,63.5531 71.7778,66.6651 C72.3918,72.6461 69.3198,77.6201 69.2248,84.5731 M127.1718,190.3731 C124.9998,179.5121 125.4958,168.8571 126.4138,158.2611 C127.9858,140.1131 122.7218,124.2131 111.5268,110.0931 C107.8058,105.4001 103.4738,101.1321 102.1628,95.6821 C99.6758,94.4861 100.5388,98.8861 97.2478,96.4261 C101.8488,77.1261 82.9808,61.9561 87.8748,40.8281 C80.5148,45.4691 82.6448,53.4961 76.5998,59.4791 C72.1308,25.0551 43.2108,16.3421 20.2658,0.0001 C21.2728,17.3001 22.9028,33.0451 34.1208,47.8751 C20.3588,44.7511 10.7718,38.4001 -0.0002,30.8041 C1.9308,44.8471 4.5958,56.7401 10.1638,67.8601 C15.2068,77.9311 23.4728,83.6661 34.3368,86.2911 C41.4558,88.0111 48.4958,88.7751 55.7818,87.8581 C59.4618,87.3951 63.2828,87.2371 66.6598,90.4271 C66.9068,92.4111 67.1898,94.6931 67.4748,96.9751 C62.2568,109.7571 51.0698,115.8561 42.2438,124.1711 C37.8008,128.3581 33.7748,132.7901 32.1178,138.9691 C29.1138,150.1701 32.2458,161.3991 31.4588,173.0751 C36.5598,166.2921 43.8798,164.6781 50.9038,162.3871 C56.3698,160.6051 60.4328,157.0751 63.9648,152.3821 C72.1278,141.5361 70.9348,129.6141 68.8708,117.5301 C67.9248,111.9991 67.6538,112.0451 69.2078,107.6411 C73.4828,120.7621 77.6958,133.5561 84.9388,145.6661 C90.1878,140.1341 89.8498,132.7431 95.8238,126.8421 C93.1508,155.6541 112.1818,171.8311 127.1718,190.3731" id="Fill-13" fill="#000000"></path>
            <path d="M813.3195,161.3587 C808.7795,163.2247 804.8335,163.0517 800.6735,161.8197 C800.9795,143.4117 799.8945,125.5387 800.9525,107.6547 C801.4795,98.7467 793.8775,90.3537 785.0055,89.5587 C779.8375,89.0947 774.7935,89.6537 769.8825,91.4967 C758.2785,95.8507 755.7415,99.2237 755.7315,111.4807 C755.7185,126.8397 754.8185,142.2547 758.3095,157.4287 C759.4435,162.3587 756.2935,163.5257 752.3455,163.7547 C747.7415,164.0217 743.3945,163.4967 744.2415,157.3167 C745.4135,148.7547 745.9285,140.2237 745.8385,131.5627 C745.5225,101.4947 745.5285,71.4237 745.5435,41.3537 C745.5475,32.8147 744.2275,24.4427 742.4495,16.1907 C741.3375,11.0267 743.5905,8.1797 747.6765,7.2107 C752.1325,6.1527 753.7185,10.1107 754.2405,13.6357 C755.0215,18.9187 755.5595,24.2907 755.5675,29.6257 C755.5905,46.1737 755.2115,62.7217 755.2225,79.2707 C755.2255,83.7287 754.2535,88.7387 758.9265,92.0307 C762.9315,91.4647 765.5075,88.5207 768.6445,86.6407 C782.3025,78.4507 799.6325,81.3577 808.2025,93.2927 C809.8805,95.6287 811.4445,98.1997 811.3095,100.9487 C810.6605,114.2167 814.0185,127.3877 812.1705,140.6577 C811.2275,147.4257 814.2385,153.9807 813.3195,161.3587" id="Fill-16" fill="#000000"></path>
            <path d="M326.5607,159.3524 C321.1837,161.6404 317.1537,161.1514 312.8117,160.3664 C312.5087,158.9184 312.0147,157.8104 312.0897,156.7434 C314.9597,116.0414 313.3117,75.2134 315.4947,34.4834 C315.9667,25.6644 316.4637,16.1514 308.8817,9.4694 C310.6817,5.1924 313.1687,2.6814 317.0437,1.2604 C321.4967,3.3954 323.2437,6.8434 323.5207,11.7624 C325.3577,44.2664 326.2337,76.8174 325.2497,109.3264 C324.7457,126.0194 323.8437,142.6164 326.5607,159.3524" id="Fill-18" fill="#000000"></path>
            <path d="M227.7043,150.3714 C229.3293,147.2144 231.2833,145.1084 234.4633,144.6224 C237.5643,145.4104 238.0403,148.2344 239.4113,150.3024 C246.1533,160.4824 260.6163,161.8774 269.1453,153.1784 C274.7903,147.4214 274.1183,137.6704 267.5903,132.0714 C263.4603,128.5294 258.5793,126.3304 253.4443,124.6574 C247.6423,122.7654 242.2263,120.1004 237.3823,116.3724 C227.3903,108.6844 226.4133,98.0224 234.7803,88.5114 C244.4513,77.5164 259.8613,75.1944 272.1833,83.0444 C275.1023,84.9034 278.5923,87.1504 275.3203,91.3264 C272.2963,95.1854 269.3023,93.2294 266.3823,90.7884 C256.5753,82.5914 249.5703,81.6174 242.1023,87.2984 C235.0593,92.6554 235.3983,102.2314 242.6683,107.3084 C250.4183,112.7214 259.6843,114.7774 267.9583,119.0234 C281.9263,126.1934 286.2363,143.9554 276.1573,154.4684 C271.6083,159.2124 266.0633,162.6984 258.9513,162.4254 C255.9283,162.3094 252.8953,162.4624 249.8673,162.4674 C238.6523,162.4834 235.1183,160.5884 227.7043,150.3714" id="Fill-20" fill="#000000"></path>
            <path d="M391.5456,109.0169 C395.1636,102.6919 398.0856,96.3089 397.6056,88.6039 C397.2266,82.5049 401.1106,81.0249 409.4906,84.4759 C394.3216,109.2469 386.0346,137.2329 370.8506,162.5089 C356.6106,137.4609 346.6226,110.8299 332.8846,86.1019 C335.3076,82.9869 338.8526,82.8749 341.1556,81.1419 C345.9686,82.6079 347.8786,85.2529 348.7526,90.1329 C350.6016,100.4669 356.4486,109.4479 360.4346,119.0729 C362.8296,124.8569 365.7526,130.4269 368.5376,136.0429 C369.8246,138.6399 370.3276,142.0959 374.3906,142.0679 C378.5156,142.0399 378.8966,138.5369 380.0026,135.8829 C382.9566,128.7869 385.7326,121.6159 388.5796,114.4749 C389.6856,113.9239 389.2846,112.5079 390.1136,111.7979 L390.1146,111.7969 C391.0026,111.0809 390.6606,109.7329 391.5456,109.0169" id="Fill-22" fill="#000000"></path>
            <path d="M645.7844,87.2889 C653.6574,84.3879 661.7814,76.2459 670.3824,86.8249 C667.6204,91.6529 664.6174,93.5499 659.3564,91.0869 C651.2094,87.2739 645.8744,90.1969 645.4464,99.0679 C645.0554,107.1689 645.6014,115.3389 646.1174,123.4549 C646.9114,135.9389 643.3684,148.4399 647.2754,160.2469 C644.3604,162.7269 641.7114,162.9709 639.2634,163.3619 C634.3734,164.1429 631.1714,162.1719 632.2354,156.8229 C635.5514,140.1609 633.5464,123.3419 634.0424,106.6019 C634.1594,102.6579 634.0894,98.6479 632.6754,94.8449 C631.5374,91.7859 629.7594,88.5949 633.4604,86.0799 C636.8314,83.7899 640.2904,83.1369 643.6014,86.3919 C644.0554,86.8369 644.8594,86.9249 645.7844,87.2889" id="Fill-24" fill="#000000"></path>
            <path d="M480.1545,86.4725 C483.2305,83.8165 486.4445,80.7055 491.6185,85.0245 C494.9665,87.8195 498.1525,84.7345 501.1675,83.1405 C508.0895,79.4795 512.9535,80.4545 517.5875,86.6785 C515.6555,91.2485 512.8385,92.4705 507.7885,90.4615 C497.9795,86.5615 492.4855,89.9825 492.6175,100.3715 C492.8485,118.7275 490.8675,137.1845 494.5715,155.4275 C494.9375,157.2295 495.1475,159.1475 493.5475,161.2375 C489.9325,162.9995 485.9425,162.1395 481.0895,161.4425 C481.9085,136.5695 483.5435,112.0965 480.1545,86.4725" id="Fill-26" fill="#000000"></path>
            <path d="M301.2624,159.6483 C296.4314,163.7783 292.1934,161.1203 288.3704,160.0403 C286.6344,158.1343 287.0404,156.4793 287.3074,154.8913 C290.4134,136.3693 288.9654,117.6893 289.2624,99.0703 C289.3034,96.5113 289.3714,93.9343 288.0714,91.5613 C285.3684,86.6273 287.8514,83.7943 292.3874,82.8393 C297.3604,81.7943 299.1314,85.6773 299.3314,89.5553 C299.8494,99.5653 300.4704,109.6373 299.8974,119.6183 C299.1334,132.9213 302.7184,146.0083 301.2624,159.6483" id="Fill-28" fill="#000000"></path>
            <path d="M618.3889,161.2626 C615.0029,162.8716 611.2419,162.5266 607.4909,161.4416 C605.3609,157.9716 606.2189,154.4216 606.5699,151.0456 C608.1359,135.9596 607.8129,120.8496 607.2639,105.7446 C607.1219,101.8266 606.4629,97.8716 605.5549,94.0506 C603.7399,86.4136 604.2509,85.4186 612.6649,83.1226 C616.6679,84.9196 617.3549,88.7616 617.2119,92.4196 C616.6619,106.5196 618.6979,120.5586 617.7709,134.6886 C617.3199,141.5676 618.4449,148.5566 618.9759,155.4876 C619.1169,157.3136 619.9539,159.1176 618.3889,161.2626" id="Fill-30" fill="#000000"></path>
            <path d="M729.3625,150.2523 C721.2935,158.7893 711.3325,160.5673 700.4805,158.0693 C686.9495,154.9553 675.9065,141.3423 674.3245,126.7323 C672.3895,108.8603 678.8935,91.2103 695.3965,85.2033 C707.6385,84.0013 717.8975,87.5253 725.6145,97.5433 C727.7145,100.2693 730.4395,102.3313 733.8635,99.1683 C736.5155,96.7183 736.7215,93.9123 734.4975,91.0883 C733.6465,90.0083 732.5995,88.9153 731.4005,88.3053 C719.4065,82.2123 707.2185,77.3653 693.6735,83.5853 C693.6725,83.5853 693.6705,83.5863 693.6695,83.5863 C689.9665,83.4603 686.9315,85.1933 683.9765,87.1103 C670.1945,96.0513 664.1515,109.8383 664.1515,125.1673 C664.1515,151.2083 689.1335,174.6983 720.9275,161.7113 C727.6145,158.9803 732.0215,153.6163 736.5035,147.3173 C731.8925,146.1383 730.7975,148.7343 729.3625,150.2523" id="Fill-32" fill="#000000"></path>
            <path d="M390.114,111.7982 C389.603,112.6912 389.092,113.5832 388.58,114.4752 C389.091,113.5832 389.603,112.6902 390.114,111.7982" id="Fill-34" fill="#000000"></path>
            <path d="M391.5456,109.0169 C391.0686,109.9429 390.5916,110.8699 390.1146,111.7969 C390.5916,110.8699 391.0686,109.9429 391.5456,109.0169" id="Fill-36" fill="#000000"></path>
            <path d="M588.3947,129.8846 C587.8727,146.6906 575.8377,159.3286 555.6727,160.8226 C554.0527,160.9426 552.4157,160.9056 550.7897,160.8596 C535.1577,160.4056 532.8057,157.8246 532.7697,142.3336 C532.7417,130.2476 532.1827,118.1626 532.0817,106.0746 C532.0407,100.9876 531.9557,95.7936 534.4867,91.0736 C542.4767,87.5316 550.5387,84.2926 559.5717,85.2126 C581.9277,93.1386 589.1247,106.3926 588.3947,129.8846 M589.0337,96.1656 C579.0057,83.7796 566.2467,80.0416 551.0837,82.3066 C545.0867,81.7396 540.2717,86.0816 534.4637,86.3026 C533.9887,84.5286 533.0607,82.7406 533.1087,80.9806 C533.5507,64.6746 531.9227,48.4006 532.6777,32.0726 C533.0807,23.3556 533.0117,14.4466 529.3987,6.3356 C521.3517,4.9216 518.7887,7.3576 520.4297,14.6096 C521.4527,19.1276 523.2947,23.3836 523.2687,28.2126 C523.0767,63.4156 523.1507,98.6206 522.9017,133.8236 C522.8547,140.5016 522.3097,147.2886 520.9617,153.8126 C519.6617,160.1076 522.3707,162.0456 527.7257,162.1896 C534.5137,162.3706 541.1187,163.5076 547.7777,164.8046 C564.5577,168.0746 588.4687,156.1466 595.2907,140.5496 C602.1907,124.7776 600.1317,109.8746 589.0337,96.1656" id="Fill-38" fill="#000000"></path>
            <path d="M446.4338,84.0399 C457.0958,88.5239 460.4448,93.6169 457.0068,100.1209 C435.0478,103.1639 423.1658,102.9419 418.3718,99.1399 C422.4988,86.6989 435.9388,79.6259 446.4338,84.0399 M464.7738,147.7929 C460.5068,152.4479 456.6518,157.1489 449.2878,157.2359 C433.0128,157.4289 423.7068,150.9859 418.5828,135.3049 C416.3968,128.6119 417.2858,121.6979 416.5918,115.0379 C415.7908,107.3509 418.2388,106.5029 424.0558,106.5649 C437.8168,106.7109 451.5788,106.8119 465.3388,107.0079 C467.7338,107.0419 469.9828,106.8979 472.2678,105.0619 C473.5318,101.6579 472.4948,98.8299 471.2568,96.0119 C462.8818,76.9369 431.1158,71.9079 417.6938,87.8529 C406.9018,100.6729 402.5378,115.6199 406.0598,132.2799 C408.0108,141.5089 411.0458,150.2119 419.7318,155.7779 C431.1358,163.0859 443.1618,164.4909 455.8828,160.3839 C465.1518,157.3919 469.6078,149.8689 475.1938,140.8309 C468.5508,141.3989 467.1178,145.2349 464.7738,147.7929" id="Fill-40" fill="#000000"></path>
            <polygon id="Clip-42" points="0 241.598 813.497 241.598 813.497 0 0 0"></polygon>
            <text id="Garden-&amp;-Home-Since-" font-family="Georgia" font-size="47" font-weight="normal" fill="#000000">
                <tspan x="238.8721" y="216.943668">Garden </tspan>
                <tspan x="404.703155" y="216.943668" letter-spacing="0.0376">&amp;</tspan>
                <tspan x="438.131868" y="216.943668"> Home </tspan>
                <tspan x="588.563997" y="216.943668" letter-spacing="0.0282">S</tspan>
                <tspan x="614.960849" y="216.943668">ince </tspan>
            </text>
            <text id="-" font-family="Georgia" font-size="45" font-weight="normal"></text>
            <text id="1976" font-family="LucidaGrande, Lucida Grande" font-size="45" font-weight="normal" fill="#000000">
                <tspan x="716.7266" y="218.348953">1976</tspan>
            </text>
        </g>
    </g>
</svg>