<?xml version="1.0" encoding="UTF-8"?>
<svg width="828px" height="235px" viewBox="0 0 828 235" version="1.1" xmlns="http://www.w3.org/2000/svg" xmlns:xlink="http://www.w3.org/1999/xlink">
    <!-- Generator: Sketch 48.2 (47327) - http://www.bohemiancoding.com/sketch -->
    <title>Group</title>
    <desc>Created with Sketch.</desc>
    <defs></defs>
    <g id="Page-1" stroke="none" stroke-width="1" fill="none" fill-rule="evenodd">
        <g id="Group">
            <path d="M170.343,107.495 C165.989,102.861 161.634,98.226 156.065,92.3 C178.116,100.192 196.561,89.671 216.38,85.187 C203.583,83.581 197.089,73.651 188.606,66.668 C186.098,64.603 183.465,62.583 180.609,61.07 C173.601,57.355 166.513,54.747 158.079,55.132 C140.713,55.924 128.891,66.689 115.947,76.251 C119.451,80.159 125.68,77.953 129.163,82.779 C119.94,84.681 112.284,80.312 102.801,78.868 C106.219,87.559 108.823,95.153 112.147,102.415 C117.603,114.335 125.555,124.164 137.636,130.081 C138.356,130.343 138.932,130.822 139.502,131.31 L139.57,131.341 C150.65,131.708 160.314,138.588 171.647,138.202 C174.456,138.106 177.524,141.057 180.134,138.011 C182.783,134.919 180.627,132.013 179.215,129.067 C175.85,122.05 172.246,115.118 170.343,107.495" id="Fill-1" fill="#333333"></path>
            <path d="M134.7858,133.7796 C161.3828,141.9466 178.3808,162.7166 181.5498,187.9686 C183.1878,201.0316 181.2708,214.3436 186.8248,228.6256 C166.6778,213.9656 144.3248,205.3376 136.7368,180.7916 C131.9438,165.2856 131.2548,150.0616 134.7858,133.7796" id="Fill-3" fill="#333333"></path>
            <path d="M54.0539,234.9974 C51.6019,231.3334 54.0429,229.2414 54.3459,226.8864 C55.2049,220.1964 56.1919,213.4844 54.8979,206.7624 C50.9539,186.2684 58.8809,170.4974 74.0909,157.4324 C80.2359,152.1544 87.3589,148.0474 93.6079,139.7804 C94.3519,148.3774 94.5969,155.1214 95.5729,161.7584 C98.7099,183.0944 92.8259,200.7124 75.3399,214.1134 C67.5269,220.1014 59.3339,225.7674 54.0539,234.9974" id="Fill-5" fill="#333333"></path>
            <path d="M173.1769,21.6439 C170.5779,28.5089 166.9519,30.6549 163.5589,32.2779 C155.1719,36.2909 148.6929,42.5139 142.2769,48.9089 C131.3339,59.8189 118.3429,63.4779 103.2929,60.1409 C99.4559,59.2899 95.5739,58.6379 91.7609,57.9039 C88.0509,44.9259 101.2399,24.9909 115.1339,22.4759 C116.9619,22.1449 118.8199,21.9059 120.6739,21.8029 C137.7459,20.8539 154.4829,28.4979 173.1769,21.6439" id="Fill-7" fill="#333333"></path>
            <path d="M139.5695,131.3412 C141.7035,129.2222 144.3945,127.8172 147.1025,129.3352 C156.4335,134.5672 167.1355,134.0702 177.0935,136.9502 C179.6835,135.5932 180.3765,133.5452 178.2045,131.4532 C173.6425,127.0602 173.4305,120.5082 169.9235,115.5782 C168.1635,113.1052 169.8085,110.1862 170.3425,107.4952 C174.3105,110.9962 176.3785,115.6562 178.0725,120.4862 C181.4275,130.0492 184.9135,139.5412 190.6475,148.5422 C176.9445,136.6922 158.1365,142.4752 143.7415,133.8102 C142.3575,132.9762 140.9605,132.1632 139.5695,131.3412" id="Fill-9" fill="#333333"></path>
            <path d="M137.6364,130.0814 C138.2584,130.4914 138.8804,130.9014 139.5014,131.3104 C138.8804,130.9004 138.2584,130.4914 137.6364,130.0814" id="Fill-11" fill="#333333"></path>
            <path d="M69.2248,84.5731 C58.7968,76.7571 55.2698,65.4391 47.1948,57.5321 C55.2988,60.5431 63.4028,63.5531 71.7778,66.6651 C72.3918,72.6461 69.3198,77.6201 69.2248,84.5731 M127.1718,190.3731 C124.9998,179.5121 125.4958,168.8571 126.4138,158.2611 C127.9858,140.1131 122.7218,124.2131 111.5268,110.0931 C107.8058,105.4001 103.4738,101.1321 102.1628,95.6821 C99.6758,94.4861 100.5388,98.8861 97.2478,96.4261 C101.8488,77.1261 82.9808,61.9561 87.8748,40.8281 C80.5148,45.4691 82.6448,53.4961 76.5998,59.4791 C72.1308,25.0551 43.2108,16.3421 20.2658,0.0001 C21.2728,17.3001 22.9028,33.0451 34.1208,47.8751 C20.3588,44.7511 10.7718,38.4001 -0.0002,30.8041 C1.9308,44.8471 4.5958,56.7401 10.1638,67.8601 C15.2068,77.9311 23.4728,83.6661 34.3368,86.2911 C41.4558,88.0111 48.4958,88.7751 55.7818,87.8581 C59.4618,87.3951 63.2828,87.2371 66.6598,90.4271 C66.9068,92.4111 67.1898,94.6931 67.4748,96.9751 C62.2568,109.7571 51.0698,115.8561 42.2438,124.1711 C37.8008,128.3581 33.7748,132.7901 32.1178,138.9691 C29.1138,150.1701 32.2458,161.3991 31.4588,173.0751 C36.5598,166.2921 43.8798,164.6781 50.9038,162.3871 C56.3698,160.6051 60.4328,157.0751 63.9648,152.3821 C72.1278,141.5361 70.9348,129.6141 68.8708,117.5301 C67.9248,111.9991 67.6538,112.0451 69.2078,107.6411 C73.4828,120.7621 77.6958,133.5561 84.9388,145.6661 C90.1878,140.1341 89.8498,132.7431 95.8238,126.8421 C93.1508,155.6541 112.1818,171.8311 127.1718,190.3731" id="Fill-13" fill="#333333"></path>
            <path d="M813.3195,161.3587 C808.7795,163.2247 804.8335,163.0517 800.6735,161.8197 C800.9795,143.4117 799.8945,125.5387 800.9525,107.6547 C801.4795,98.7467 793.8775,90.3537 785.0055,89.5587 C779.8375,89.0947 774.7935,89.6537 769.8825,91.4967 C758.2785,95.8507 755.7415,99.2237 755.7315,111.4807 C755.7185,126.8397 754.8185,142.2547 758.3095,157.4287 C759.4435,162.3587 756.2935,163.5257 752.3455,163.7547 C747.7415,164.0217 743.3945,163.4967 744.2415,157.3167 C745.4135,148.7547 745.9285,140.2237 745.8385,131.5627 C745.5225,101.4947 745.5285,71.4237 745.5435,41.3537 C745.5475,32.8147 744.2275,24.4427 742.4495,16.1907 C741.3375,11.0267 743.5905,8.1797 747.6765,7.2107 C752.1325,6.1527 753.7185,10.1107 754.2405,13.6357 C755.0215,18.9187 755.5595,24.2907 755.5675,29.6257 C755.5905,46.1737 755.2115,62.7217 755.2225,79.2707 C755.2255,83.7287 754.2535,88.7387 758.9265,92.0307 C762.9315,91.4647 765.5075,88.5207 768.6445,86.6407 C782.3025,78.4507 799.6325,81.3577 808.2025,93.2927 C809.8805,95.6287 811.4445,98.1997 811.3095,100.9487 C810.6605,114.2167 814.0185,127.3877 812.1705,140.6577 C811.2275,147.4257 814.2385,153.9807 813.3195,161.3587" id="Fill-16" fill="#333333"></path>
            <path d="M326.5607,159.3524 C321.1837,161.6404 317.1537,161.1514 312.8117,160.3664 C312.5087,158.9184 312.0147,157.8104 312.0897,156.7434 C314.9597,116.0414 313.3117,75.2134 315.4947,34.4834 C315.9667,25.6644 316.4637,16.1514 308.8817,9.4694 C310.6817,5.1924 313.1687,2.6814 317.0437,1.2604 C321.4967,3.3954 323.2437,6.8434 323.5207,11.7624 C325.3577,44.2664 326.2337,76.8174 325.2497,109.3264 C324.7457,126.0194 323.8437,142.6164 326.5607,159.3524" id="Fill-18" fill="#333333"></path>
            <path d="M227.7043,150.3714 C229.3293,147.2144 231.2833,145.1084 234.4633,144.6224 C237.5643,145.4104 238.0403,148.2344 239.4113,150.3024 C246.1533,160.4824 260.6163,161.8774 269.1453,153.1784 C274.7903,147.4214 274.1183,137.6704 267.5903,132.0714 C263.4603,128.5294 258.5793,126.3304 253.4443,124.6574 C247.6423,122.7654 242.2263,120.1004 237.3823,116.3724 C227.3903,108.6844 226.4133,98.0224 234.7803,88.5114 C244.4513,77.5164 259.8613,75.1944 272.1833,83.0444 C275.1023,84.9034 278.5923,87.1504 275.3203,91.3264 C272.2963,95.1854 269.3023,93.2294 266.3823,90.7884 C256.5753,82.5914 249.5703,81.6174 242.1023,87.2984 C235.0593,92.6554 235.3983,102.2314 242.6683,107.3084 C250.4183,112.7214 259.6843,114.7774 267.9583,119.0234 C281.9263,126.1934 286.2363,143.9554 276.1573,154.4684 C271.6083,159.2124 266.0633,162.6984 258.9513,162.4254 C255.9283,162.3094 252.8953,162.4624 249.8673,162.4674 C238.6523,162.4834 235.1183,160.5884 227.7043,150.3714" id="Fill-20" fill="#333333"></path>
            <path d="M391.5456,109.0169 C395.1636,102.6919 398.0856,96.3089 397.6056,88.6039 C397.2266,82.5049 401.1106,81.0249 409.4906,84.4759 C394.3216,109.2469 386.0346,137.2329 370.8506,162.5089 C356.6106,137.4609 346.6226,110.8299 332.8846,86.1019 C335.3076,82.9869 338.8526,82.8749 341.1556,81.1419 C345.9686,82.6079 347.8786,85.2529 348.7526,90.1329 C350.6016,100.4669 356.4486,109.4479 360.4346,119.0729 C362.8296,124.8569 365.7526,130.4269 368.5376,136.0429 C369.8246,138.6399 370.3276,142.0959 374.3906,142.0679 C378.5156,142.0399 378.8966,138.5369 380.0026,135.8829 C382.9566,128.7869 385.7326,121.6159 388.5796,114.4749 C389.6856,113.9239 389.2846,112.5079 390.1136,111.7979 L390.1146,111.7969 C391.0026,111.0809 390.6606,109.7329 391.5456,109.0169" id="Fill-22" fill="#333333"></path>
            <path d="M645.7844,87.2889 C653.6574,84.3879 661.7814,76.2459 670.3824,86.8249 C667.6204,91.6529 664.6174,93.5499 659.3564,91.0869 C651.2094,87.2739 645.8744,90.1969 645.4464,99.0679 C645.0554,107.1689 645.6014,115.3389 646.1174,123.4549 C646.9114,135.9389 643.3684,148.4399 647.2754,160.2469 C644.3604,162.7269 641.7114,162.9709 639.2634,163.3619 C634.3734,164.1429 631.1714,162.1719 632.2354,156.8229 C635.5514,140.1609 633.5464,123.3419 634.0424,106.6019 C634.1594,102.6579 634.0894,98.6479 632.6754,94.8449 C631.5374,91.7859 629.7594,88.5949 633.4604,86.0799 C636.8314,83.7899 640.2904,83.1369 643.6014,86.3919 C644.0554,86.8369 644.8594,86.9249 645.7844,87.2889" id="Fill-24" fill="#333333"></path>
            <path d="M480.1545,86.4725 C483.2305,83.8165 486.4445,80.7055 491.6185,85.0245 C494.9665,87.8195 498.1525,84.7345 501.1675,83.1405 C508.0895,79.4795 512.9535,80.4545 517.5875,86.6785 C515.6555,91.2485 512.8385,92.4705 507.7885,90.4615 C497.9795,86.5615 492.4855,89.9825 492.6175,100.3715 C492.8485,118.7275 490.8675,137.1845 494.5715,155.4275 C494.9375,157.2295 495.1475,159.1475 493.5475,161.2375 C489.9325,162.9995 485.9425,162.1395 481.0895,161.4425 C481.9085,136.5695 483.5435,112.0965 480.1545,86.4725" id="Fill-26" fill="#333333"></path>
            <path d="M301.2624,159.6483 C296.4314,163.7783 292.1934,161.1203 288.3704,160.0403 C286.6344,158.1343 287.0404,156.4793 287.3074,154.8913 C290.4134,136.3693 288.9654,117.6893 289.2624,99.0703 C289.3034,96.5113 289.3714,93.9343 288.0714,91.5613 C285.3684,86.6273 287.8514,83.7943 292.3874,82.8393 C297.3604,81.7943 299.1314,85.6773 299.3314,89.5553 C299.8494,99.5653 300.4704,109.6373 299.8974,119.6183 C299.1334,132.9213 302.7184,146.0083 301.2624,159.6483" id="Fill-28" fill="#333333"></path>
            <path d="M618.3889,161.2626 C615.0029,162.8716 611.2419,162.5266 607.4909,161.4416 C605.3609,157.9716 606.2189,154.4216 606.5699,151.0456 C608.1359,135.9596 607.8129,120.8496 607.2639,105.7446 C607.1219,101.8266 606.4629,97.8716 605.5549,94.0506 C603.7399,86.4136 604.2509,85.4186 612.6649,83.1226 C616.6679,84.9196 617.3549,88.7616 617.2119,92.4196 C616.6619,106.5196 618.6979,120.5586 617.7709,134.6886 C617.3199,141.5676 618.4449,148.5566 618.9759,155.4876 C619.1169,157.3136 619.9539,159.1176 618.3889,161.2626" id="Fill-30" fill="#333333"></path>
            <path d="M729.3625,150.2523 C721.2935,158.7893 711.3325,160.5673 700.4805,158.0693 C686.9495,154.9553 675.9065,141.3423 674.3245,126.7323 C672.3895,108.8603 678.8935,91.2103 695.3965,85.2033 C707.6385,84.0013 717.8975,87.5253 725.6145,97.5433 C727.7145,100.2693 730.4395,102.3313 733.8635,99.1683 C736.5155,96.7183 736.7215,93.9123 734.4975,91.0883 C733.6465,90.0083 732.5995,88.9153 731.4005,88.3053 C719.4065,82.2123 707.2185,77.3653 693.6735,83.5853 C693.6725,83.5853 693.6705,83.5863 693.6695,83.5863 C689.9665,83.4603 686.9315,85.1933 683.9765,87.1103 C670.1945,96.0513 664.1515,109.8383 664.1515,125.1673 C664.1515,151.2083 689.1335,174.6983 720.9275,161.7113 C727.6145,158.9803 732.0215,153.6163 736.5035,147.3173 C731.8925,146.1383 730.7975,148.7343 729.3625,150.2523" id="Fill-32" fill="#333333"></path>
            <path d="M390.114,111.7982 C389.603,112.6912 389.092,113.5832 388.58,114.4752 C389.091,113.5832 389.603,112.6902 390.114,111.7982" id="Fill-34" fill="#333333"></path>
            <path d="M391.5456,109.0169 C391.0686,109.9429 390.5916,110.8699 390.1146,111.7969 C390.5916,110.8699 391.0686,109.9429 391.5456,109.0169" id="Fill-36" fill="#333333"></path>
            <path d="M588.3947,129.8846 C587.8727,146.6906 575.8377,159.3286 555.6727,160.8226 C554.0527,160.9426 552.4157,160.9056 550.7897,160.8596 C535.1577,160.4056 532.8057,157.8246 532.7697,142.3336 C532.7417,130.2476 532.1827,118.1626 532.0817,106.0746 C532.0407,100.9876 531.9557,95.7936 534.4867,91.0736 C542.4767,87.5316 550.5387,84.2926 559.5717,85.2126 C581.9277,93.1386 589.1247,106.3926 588.3947,129.8846 M589.0337,96.1656 C579.0057,83.7796 566.2467,80.0416 551.0837,82.3066 C545.0867,81.7396 540.2717,86.0816 534.4637,86.3026 C533.9887,84.5286 533.0607,82.7406 533.1087,80.9806 C533.5507,64.6746 531.9227,48.4006 532.6777,32.0726 C533.0807,23.3556 533.0117,14.4466 529.3987,6.3356 C521.3517,4.9216 518.7887,7.3576 520.4297,14.6096 C521.4527,19.1276 523.2947,23.3836 523.2687,28.2126 C523.0767,63.4156 523.1507,98.6206 522.9017,133.8236 C522.8547,140.5016 522.3097,147.2886 520.9617,153.8126 C519.6617,160.1076 522.3707,162.0456 527.7257,162.1896 C534.5137,162.3706 541.1187,163.5076 547.7777,164.8046 C564.5577,168.0746 588.4687,156.1466 595.2907,140.5496 C602.1907,124.7776 600.1317,109.8746 589.0337,96.1656" id="Fill-38" fill="#333333"></path>
            <path d="M446.4338,84.0399 C457.0958,88.5239 460.4448,93.6169 457.0068,100.1209 C435.0478,103.1639 423.1658,102.9419 418.3718,99.1399 C422.4988,86.6989 435.9388,79.6259 446.4338,84.0399 M464.7738,147.7929 C460.5068,152.4479 456.6518,157.1489 449.2878,157.2359 C433.0128,157.4289 423.7068,150.9859 418.5828,135.3049 C416.3968,128.6119 417.2858,121.6979 416.5918,115.0379 C415.7908,107.3509 418.2388,106.5029 424.0558,106.5649 C437.8168,106.7109 451.5788,106.8119 465.3388,107.0079 C467.7338,107.0419 469.9828,106.8979 472.2678,105.0619 C473.5318,101.6579 472.4948,98.8299 471.2568,96.0119 C462.8818,76.9369 431.1158,71.9079 417.6938,87.8529 C406.9018,100.6729 402.5378,115.6199 406.0598,132.2799 C408.0108,141.5089 411.0458,150.2119 419.7318,155.7779 C431.1358,163.0859 443.1618,164.4909 455.8828,160.3839 C465.1518,157.3919 469.6078,149.8689 475.1938,140.8309 C468.5508,141.3989 467.1178,145.2349 464.7738,147.7929" id="Fill-40" fill="#333333"></path>
            <path d="M272.630401,203.931461 C272.263211,203.97736 271.769808,204.050031 271.150176,204.149479 C270.530544,204.248926 270.029491,204.390444 269.647002,204.574039 C269.188016,204.803532 268.862905,205.128643 268.671661,205.549381 C268.480416,205.970119 268.384795,206.463522 268.384795,207.029605 L268.384795,209.55402 C268.384795,211.389966 268.39627,212.629212 268.419219,213.271793 C268.442168,213.914374 268.468942,214.442201 268.499541,214.855289 C266.464701,215.773262 264.43754,216.477031 262.417998,216.966617 C260.398457,217.456203 258.417194,217.700992 256.474151,217.700992 C254.393411,217.700992 252.389199,217.310859 250.461455,216.530582 C248.533711,215.750305 246.850786,214.641104 245.412627,213.202945 C243.95917,211.749488 242.80407,209.982415 241.947295,207.901676 C241.09052,205.820936 240.662139,203.495439 240.662139,200.925113 C240.662139,198.446585 241.071396,196.147862 241.889922,194.028873 C242.708448,191.909885 243.867372,190.070141 245.366729,188.509586 C246.820187,186.97963 248.552835,185.790108 250.564727,184.940982 C252.576619,184.091857 254.729999,183.667301 257.024932,183.667301 C258.860879,183.667301 260.459658,183.889141 261.821319,184.332828 C263.182979,184.776515 264.383976,185.311992 265.424346,185.939273 L266.365264,184.378727 L268.201202,184.378727 L268.407745,195.761539 L266.525909,195.761539 C266.204618,194.506975 265.806835,193.271555 265.332549,192.05524 C264.858263,190.838926 264.24629,189.748849 263.496612,188.784977 C262.746933,187.821105 261.832799,187.052313 260.75418,186.47858 C259.675561,185.904847 258.386593,185.617984 256.887237,185.617984 C255.250184,185.617984 253.789099,185.950745 252.503936,186.616275 C251.218773,187.281806 250.101922,188.272437 249.15335,189.588199 C248.220077,190.858062 247.501009,192.441543 246.996123,194.338687 C246.491238,196.235832 246.238799,198.354789 246.238799,200.695621 C246.238799,202.761061 246.487413,204.7079 246.984649,206.536197 C247.481884,208.364494 248.204778,209.94415 249.15335,211.275211 C250.101922,212.636871 251.28762,213.707824 252.710479,214.488102 C254.133338,215.268379 255.747416,215.658512 257.552764,215.658512 C258.899125,215.658512 260.126896,215.451971 261.236114,215.038883 C262.345331,214.625795 263.129422,214.189764 263.588409,213.730777 C263.710805,212.9352 263.775827,212.131986 263.783477,211.321109 C263.791127,210.510233 263.794952,209.821763 263.794952,209.25568 L263.794952,207.465641 C263.794952,206.823059 263.70698,206.253159 263.531036,205.755924 C263.355091,205.258688 262.991732,204.895329 262.440948,204.665836 C261.936062,204.436343 261.251417,204.264225 260.386993,204.149479 C259.522568,204.034732 258.845573,203.96206 258.355987,203.931461 L258.355987,202.256168 L272.630401,202.256168 L272.630401,203.931461 Z M296.038604,216.530582 C295.319525,216.790674 294.688428,217.00104 294.145293,217.161686 C293.602159,217.322331 292.986361,217.402652 292.297881,217.402652 C291.104516,217.402652 290.152133,217.12344 289.440704,216.565006 C288.729274,216.006572 288.274119,215.191883 288.075225,214.120914 L287.93753,214.120914 C286.943059,215.222482 285.875931,216.063945 284.736114,216.645328 C283.596297,217.226711 282.223182,217.517398 280.616729,217.517398 C278.918478,217.517398 277.522415,216.997221 276.428496,215.956852 C275.334578,214.916482 274.787627,213.554842 274.787627,211.871891 C274.787627,210.999816 274.910022,210.21955 275.154815,209.53107 C275.399608,208.84259 275.766792,208.222968 276.256377,207.672184 C276.638866,207.213197 277.143744,206.80394 277.771026,206.4444 C278.398308,206.084861 278.987332,205.797998 279.538116,205.583805 C280.226596,205.323712 281.622659,204.841783 283.726348,204.138004 C285.830037,203.434224 287.249049,202.883449 287.983428,202.48566 L287.983428,200.213687 C287.983428,200.014793 287.941355,199.63231 287.857207,199.066227 C287.77306,198.500143 287.593293,197.964667 287.317901,197.459781 C287.01191,196.893698 286.579704,196.400294 286.02127,195.979557 C285.462836,195.558819 284.671096,195.348453 283.646026,195.348453 C282.942246,195.348453 282.2882,195.467023 281.683868,195.704166 C281.079535,195.941309 280.654979,196.189923 280.410186,196.450016 C280.410186,196.756007 280.482858,197.207337 280.628204,197.80402 C280.773549,198.400702 280.846221,198.951478 280.846221,199.456363 C280.846221,199.991848 280.605257,200.481426 280.123321,200.925113 C279.641385,201.3688 278.972039,201.590641 278.115264,201.590641 C277.350286,201.590641 276.788036,201.319078 276.428496,200.775943 C276.068957,200.232809 275.88919,199.624661 275.88919,198.95148 C275.88919,198.247701 276.137804,197.574531 276.635039,196.931949 C277.132275,196.289368 277.778672,195.715643 278.574248,195.210758 C279.262728,194.78237 280.096542,194.419011 281.075713,194.12067 C282.054885,193.822329 283.011093,193.67316 283.944366,193.67316 C285.229528,193.67316 286.350204,193.761131 287.306426,193.937076 C288.262648,194.113021 289.130885,194.491679 289.911163,195.073062 C290.69144,195.639146 291.284289,196.407937 291.689727,197.379459 C292.095165,198.350981 292.297881,199.601701 292.297881,201.131656 C292.297881,203.319493 292.274932,205.258682 292.229034,206.949283 C292.183135,208.639884 292.160186,210.487278 292.160186,212.49152 C292.160186,213.088202 292.263456,213.562481 292.47,213.914371 C292.676544,214.266261 292.994005,214.564598 293.422393,214.809391 C293.651886,214.947087 294.015245,215.023583 294.512481,215.038883 C295.009716,215.054182 295.518419,215.061832 296.038604,215.061832 L296.038604,216.530582 Z M288.029327,204.413395 C286.728864,204.795883 285.589065,205.170717 284.609893,205.537906 C283.630721,205.905096 282.720411,206.364075 281.878936,206.914859 C281.113958,207.435044 280.509635,208.050842 280.065948,208.762271 C279.622261,209.473701 279.40042,210.318989 279.40042,211.29816 C279.40042,212.568023 279.733181,213.501282 280.398711,214.097965 C281.064242,214.694648 281.90953,214.992984 282.9346,214.992984 C284.020868,214.992984 284.977076,214.729071 285.803252,214.201236 C286.629428,213.673402 287.325548,213.049954 287.891631,212.330875 L288.029327,204.413395 Z M315.614288,197.230289 C315.614288,198.010566 315.423046,198.702861 315.040557,199.307193 C314.658068,199.911526 314.069044,200.213687 313.273467,200.213687 C312.416692,200.213687 311.762646,199.991847 311.311309,199.54816 C310.859972,199.104473 310.634307,198.614895 310.634307,198.07941 C310.634307,197.74282 310.661081,197.436833 310.714629,197.161441 C310.768178,196.886049 310.817901,196.610662 310.863799,196.33527 C310.14472,196.33527 309.303257,196.625957 308.339385,197.20734 C307.375513,197.788723 306.556999,198.614887 305.883819,199.685855 L305.883819,212.858707 C305.883819,213.394191 305.987089,213.830222 306.193633,214.166812 C306.400177,214.503403 306.725288,214.755842 307.168975,214.924137 C307.551464,215.077132 308.044867,215.191877 308.6492,215.268375 C309.253532,215.344873 309.777534,215.39842 310.221221,215.42902 L310.221221,216.943668 L298.287627,216.943668 L298.287627,215.42902 C298.639517,215.39842 299.002876,215.367822 299.377715,215.337223 C299.752554,215.306624 300.077665,215.245426 300.353057,215.153629 C300.781445,215.015933 301.098906,214.774969 301.30545,214.430729 C301.511994,214.086489 301.615264,213.638983 301.615264,213.088199 L301.615264,199.112125 C301.615264,198.637839 301.504344,198.171209 301.2825,197.712223 C301.060657,197.253236 300.750845,196.886052 300.353057,196.61066 C300.062365,196.427065 299.718131,196.293196 299.320342,196.209049 C298.922554,196.124901 298.494173,196.067529 298.035186,196.03693 L298.035186,194.54523 L305.56253,194.040348 L305.883819,194.361637 L305.883819,197.551578 L305.998565,197.551578 C306.947137,196.312314 308.002791,195.371406 309.165557,194.728824 C310.328323,194.086243 311.391626,193.764957 312.355498,193.764957 C313.31937,193.764957 314.103461,194.078593 314.707793,194.705875 C315.312126,195.333157 315.614288,196.17462 315.614288,197.230289 Z M342.327178,216.530582 L334.432647,217.035465 L334.088409,216.714176 L334.088409,214.602848 L333.904815,214.556949 C333.109238,215.444323 332.126256,216.171041 330.95584,216.737125 C329.785424,217.303209 328.580602,217.586246 327.341338,217.586246 C326.056176,217.586246 324.813105,217.299384 323.61209,216.72565 C322.411075,216.151917 321.366896,215.344878 320.479522,214.304508 C319.576848,213.248838 318.861605,211.978994 318.33377,210.494937 C317.805935,209.010881 317.542022,207.373853 317.542022,205.583805 C317.542022,203.946752 317.825059,202.393871 318.391143,200.925113 C318.957227,199.456356 319.737492,198.171213 320.731963,197.069645 C321.665236,196.044574 322.808861,195.22606 324.162871,194.614078 C325.516882,194.002096 326.897646,193.696109 328.305205,193.696109 C329.360875,193.696109 330.397404,193.829978 331.414825,194.097721 C332.432245,194.365463 333.308131,194.705873 334.04251,195.118961 L334.04251,187.247379 C334.04251,186.604798 333.935415,186.019598 333.721221,185.491764 C333.507027,184.963929 333.20869,184.562322 332.826202,184.28693 C332.397814,183.996238 331.820264,183.785872 331.093536,183.655826 C330.366807,183.52578 329.582716,183.430159 328.741241,183.368961 L328.741241,181.946109 L337.989776,181.418277 L338.334014,181.762516 L338.334014,212.284977 C338.334014,212.820461 338.437285,213.275616 338.643829,213.650455 C338.850373,214.025294 339.152534,214.342755 339.550323,214.602848 C339.841014,214.786442 340.261746,214.901187 340.81253,214.947086 C341.363314,214.992985 341.868191,215.023583 342.327178,215.038883 L342.327178,216.530582 Z M334.04251,212.560367 L334.04251,199.318668 C333.920114,198.92088 333.721222,198.492498 333.44583,198.033512 C333.170438,197.574525 332.826204,197.153794 332.413116,196.771305 C331.969429,196.388816 331.449251,196.071355 330.852569,195.818912 C330.255886,195.566469 329.559767,195.44025 328.76419,195.44025 C327.846217,195.44025 327.000929,195.67739 326.228301,196.151676 C325.455674,196.625962 324.771029,197.306782 324.174346,198.194156 C323.608263,199.050931 323.160757,200.141008 322.831817,201.46442 C322.502876,202.787831 322.338409,204.252742 322.338409,205.859195 C322.338409,207.144358 322.460803,208.310932 322.705596,209.358951 C322.950389,210.406971 323.363471,211.382303 323.944854,212.284977 C324.480338,213.141752 325.164983,213.830221 325.998809,214.350406 C326.832635,214.870591 327.823266,215.13068 328.970733,215.13068 C330.194697,215.13068 331.208278,214.862941 332.011504,214.327457 C332.814731,213.791973 333.491726,213.202949 334.04251,212.560367 Z M364.633819,211.619449 C363.685246,213.424797 362.415402,214.862933 360.824248,215.933902 C359.233095,217.004871 357.404825,217.540348 355.339385,217.540348 C353.518738,217.540348 351.923783,217.219062 350.554473,216.57648 C349.185163,215.933899 348.056838,215.061838 347.169463,213.96027 C346.282089,212.858702 345.620393,211.573558 345.184356,210.104801 C344.748319,208.636043 344.530303,207.083162 344.530303,205.446109 C344.530303,203.977352 344.763618,202.535391 345.230254,201.120182 C345.696891,199.704973 346.381536,198.431304 347.284209,197.299137 C348.156284,196.212868 349.238711,195.336982 350.531524,194.671451 C351.824336,194.005921 353.273947,193.67316 354.880401,193.67316 C356.532753,193.67316 357.94794,193.933249 359.126006,194.453434 C360.304072,194.973618 361.26028,195.685037 361.994659,196.587711 C362.698438,197.444486 363.22244,198.454242 363.56668,199.617008 C363.91092,200.779774 364.083038,202.041968 364.083038,203.403629 L364.083038,204.918277 L349.097198,204.918277 C349.097198,206.402334 349.238716,207.748675 349.521758,208.95734 C349.8048,210.166005 350.252305,211.229308 350.864288,212.147281 C351.46097,213.034655 352.241236,213.7346 353.205108,214.247135 C354.16898,214.75967 355.316429,215.015934 356.647491,215.015934 C358.009151,215.015934 359.183374,214.698473 360.170196,214.063541 C361.157017,213.428609 362.1094,212.284985 363.027373,210.632633 L364.633819,211.619449 Z M359.562041,202.990543 C359.562041,202.133768 359.48937,201.215808 359.344024,200.236637 C359.198678,199.257465 358.965363,198.438951 358.644073,197.78107 C358.292183,197.077291 357.810254,196.503566 357.198272,196.059879 C356.58629,195.616192 355.798374,195.394352 354.834502,195.394352 C353.228049,195.394352 351.893183,196.063697 350.829864,197.402408 C349.766545,198.741119 349.188995,200.603812 349.097198,202.990543 L359.562041,202.990543 Z M392.241729,216.943668 L381.157256,216.943668 L381.157256,215.42902 C381.509146,215.39842 381.895454,215.367822 382.316192,215.337223 C382.73693,215.306624 383.084989,215.245426 383.360381,215.153629 C383.788769,215.015933 384.10623,214.774969 384.312774,214.430729 C384.519318,214.086489 384.622588,213.638983 384.622588,213.088199 L384.622588,201.452945 C384.622588,199.846492 384.24393,198.607247 383.486602,197.735172 C382.729274,196.863097 381.80749,196.427066 380.721221,196.427066 C379.910345,196.427066 379.168327,196.553286 378.495147,196.805729 C377.821966,197.058171 377.225293,197.367983 376.705108,197.735172 C376.200222,198.087062 375.798615,198.46572 375.500274,198.871158 C375.201932,199.276596 374.983917,199.601707 374.846221,199.8465 L374.846221,212.858707 C374.846221,213.378892 374.953316,213.807273 375.16751,214.143863 C375.381704,214.480454 375.70299,214.740542 376.131377,214.924137 C376.452668,215.077132 376.800728,215.191877 377.175567,215.268375 C377.550406,215.344873 377.936714,215.39842 378.334502,215.42902 L378.334502,216.943668 L367.25003,216.943668 L367.25003,215.42902 C367.601919,215.39842 367.965278,215.367822 368.340118,215.337223 C368.714957,215.306624 369.040067,215.245426 369.315459,215.153629 C369.743847,215.015933 370.061308,214.774969 370.267852,214.430729 C370.474396,214.086489 370.577666,213.638983 370.577666,213.088199 L370.577666,199.112125 C370.577666,198.59194 370.466746,198.113836 370.244903,197.677799 C370.023059,197.241761 369.713248,196.886052 369.315459,196.61066 C369.024768,196.427065 368.680533,196.293196 368.282745,196.209049 C367.884956,196.124901 367.456575,196.067529 366.997588,196.03693 L366.997588,194.54523 L374.524932,194.040348 L374.846221,194.361637 L374.846221,197.551578 L374.960967,197.551578 C375.328157,197.184389 375.787136,196.744533 376.33792,196.231998 C376.888704,195.719463 377.408881,195.302556 377.898467,194.981266 C378.464551,194.614076 379.137721,194.30809 379.917998,194.063297 C380.698276,193.818504 381.577987,193.696109 382.557159,193.696109 C384.729695,193.696109 386.33995,194.373105 387.387969,195.727115 C388.435989,197.081126 388.959991,198.882622 388.959991,201.131656 L388.959991,212.904605 C388.959991,213.44009 389.051787,213.872296 389.235381,214.201236 C389.418976,214.530177 389.732612,214.78644 390.176299,214.970035 C390.543489,215.123031 390.86095,215.230126 391.128692,215.291324 C391.396434,215.352522 391.767443,215.39842 392.241729,215.42902 L392.241729,216.943668 Z M438.071319,197.941715 C437.168645,198.018213 436.258335,198.19798 435.340362,198.481021 C434.422388,198.764063 433.718619,199.211569 433.229034,199.823551 C432.907743,200.19074 432.582632,200.733866 432.253692,201.452945 C431.924751,202.172024 431.530794,203.021137 431.071807,204.000309 C430.61282,204.97948 430.146191,205.943338 429.671905,206.89191 C429.197618,207.840483 428.585645,208.789041 427.835967,209.737613 C428.447949,210.471992 429.197616,211.271382 430.084991,212.135807 C430.972365,213.000232 431.729681,213.623679 432.356963,214.006168 C432.968946,214.358058 433.837182,214.656395 434.9617,214.901187 C436.086217,215.14598 437.008001,215.283674 437.72708,215.314273 L437.72708,216.943668 L428.272002,216.943668 L424.852569,213.042301 C424.347683,213.593085 423.770134,214.162985 423.119903,214.752018 C422.469672,215.34105 421.785027,215.849753 421.065948,216.278141 C420.270371,216.737127 419.470981,217.096661 418.667754,217.356754 C417.864528,217.616846 416.919794,217.746891 415.833526,217.746891 C414.701359,217.746891 413.576858,217.582423 412.459991,217.253482 C411.343123,216.924542 410.325718,216.40054 409.407745,215.681461 C408.52037,214.977681 407.801302,214.075021 407.250518,212.973453 C406.699734,211.871885 406.424346,210.556143 406.424346,209.026187 C406.424346,207.129043 406.925399,205.411693 407.92752,203.874088 C408.929641,202.336483 410.799983,200.703279 413.538604,198.97443 C412.29934,197.337377 411.335482,195.92219 410.647002,194.728824 C409.958522,193.535459 409.614288,192.196768 409.614288,190.712711 C409.614288,189.657042 409.824653,188.689359 410.245391,187.809635 C410.666129,186.92991 411.258978,186.161119 412.023955,185.503238 C412.727735,184.906556 413.584497,184.439926 414.594268,184.103336 C415.604039,183.766746 416.629093,183.598453 417.669463,183.598453 C418.893428,183.598453 419.968205,183.79352 420.893829,184.183658 C421.819452,184.573797 422.572943,185.082499 423.154327,185.709781 C423.689811,186.291164 424.099068,186.964335 424.38211,187.729312 C424.665152,188.49429 424.80667,189.259257 424.80667,190.024234 C424.80667,191.860181 424.23677,193.439836 423.096954,194.763248 C421.957137,196.08666 420.385131,197.276182 418.380889,198.331852 C419.819047,200.274895 421.226585,202.045792 422.603545,203.644596 C423.980505,205.243399 425.303897,206.815405 426.57376,208.36066 C427.59883,206.723608 428.394395,205.182201 428.960479,203.736393 C429.526562,202.290585 429.8096,201.016916 429.8096,199.915348 C429.8096,199.425762 429.453891,199.039454 428.742461,198.756412 C428.031032,198.47337 427.04805,198.201807 425.793487,197.941715 L425.793487,196.31232 L438.071319,196.31232 L438.071319,197.941715 Z M421.846221,190.483219 C421.846221,188.922664 421.501986,187.725492 420.813506,186.891666 C420.125026,186.05784 419.145869,185.640934 417.876006,185.640934 C417.156927,185.640934 416.560253,185.786277 416.085967,186.076969 C415.611681,186.36766 415.206249,186.734844 414.869659,187.178531 C414.563667,187.606919 414.341827,188.065899 414.204131,188.555484 C414.066435,189.04507 413.997588,189.481101 413.997588,189.86359 C413.997588,190.919259 414.272976,191.986387 414.82376,193.065006 C415.374544,194.143625 416.231306,195.447892 417.394073,196.977848 C418.969927,196.090473 420.105902,195.130441 420.802032,194.097721 C421.498161,193.065001 421.846221,191.860179 421.846221,190.483219 Z M423.63626,211.711246 C422.213401,209.905899 420.610797,207.928461 418.828399,205.778873 C417.046001,203.629285 415.619338,201.81249 414.54837,200.328434 C413.309106,201.185209 412.433219,202.191139 411.920684,203.346256 C411.408149,204.501372 411.151885,205.820939 411.151885,207.304996 C411.151885,209.385736 411.744734,211.110735 412.93045,212.480045 C414.116165,213.849355 415.70347,214.534 417.692413,214.534 C418.80928,214.534 419.907007,214.293036 420.985625,213.8111 C422.064244,213.329164 422.94778,212.629219 423.63626,211.711246 Z M485.430208,216.943668 L471.913118,216.943668 L471.913118,215.314273 C472.280307,215.283674 472.811959,215.237776 473.508089,215.176578 C474.204218,215.11538 474.682322,215.023584 474.942415,214.901187 C475.401402,214.717593 475.737987,214.43838 475.95218,214.063541 C476.166374,213.688702 476.27347,213.202948 476.27347,212.606266 L476.27347,201.01691 L460.966341,201.01691 L460.966341,212.353824 C460.966341,212.889309 461.054312,213.340639 461.230257,213.707828 C461.406202,214.075017 461.754261,214.396303 462.274446,214.671695 C462.534539,214.809391 462.997343,214.947085 463.662874,215.084781 C464.328404,215.222477 464.852406,215.298974 465.234895,215.314273 L465.234895,216.943668 L451.717805,216.943668 L451.717805,215.314273 C452.084995,215.283674 452.616646,215.237776 453.312776,215.176578 C454.008906,215.11538 454.48701,215.023584 454.747102,214.901187 C455.206089,214.717593 455.542674,214.43838 455.756868,214.063541 C455.971062,213.688702 456.078157,213.202948 456.078157,212.606266 L456.078157,189.106266 C456.078157,188.61668 455.978711,188.169175 455.779817,187.763736 C455.580923,187.358298 455.236688,187.040837 454.747102,186.811344 C454.334014,186.61245 453.832961,186.436507 453.243929,186.283512 C452.654896,186.130516 452.146193,186.03872 451.717805,186.008121 L451.717805,184.378727 L465.234895,184.378727 L465.234895,186.008121 C464.806508,186.023421 464.282506,186.092268 463.662874,186.214664 C463.043242,186.337061 462.580437,186.451805 462.274446,186.558902 C461.754261,186.742497 461.406202,187.048484 461.230257,187.476871 C461.054312,187.905259 460.966341,188.371888 460.966341,188.876773 L460.966341,198.97443 L476.27347,198.97443 L476.27347,189.106266 C476.27347,188.61668 476.174024,188.169175 475.97513,187.763736 C475.776235,187.358298 475.432001,187.040837 474.942415,186.811344 C474.529327,186.61245 474.028274,186.436507 473.439241,186.283512 C472.850208,186.130516 472.341506,186.03872 471.913118,186.008121 L471.913118,184.378727 L485.430208,184.378727 L485.430208,186.008121 C485.00182,186.023421 484.477818,186.092268 483.858186,186.214664 C483.238554,186.337061 482.77575,186.451805 482.469759,186.558902 C481.949574,186.742497 481.601514,187.048484 481.425569,187.476871 C481.249624,187.905259 481.161653,188.371888 481.161653,188.876773 L481.161653,212.353824 C481.161653,212.889309 481.249624,213.340639 481.425569,213.707828 C481.601514,214.075017 481.949574,214.396303 482.469759,214.671695 C482.729851,214.809391 483.192656,214.947085 483.858186,215.084781 C484.523717,215.222477 485.047719,215.298974 485.430208,215.314273 L485.430208,216.943668 Z M511.477571,205.400211 C511.477571,206.991365 511.225132,208.555721 510.720247,210.093326 C510.215362,211.630932 509.496293,212.935199 508.56302,214.006168 C507.507351,215.230132 506.283405,216.140442 504.891145,216.737125 C503.498886,217.333808 501.938354,217.632145 500.209505,217.632145 C498.771346,217.632145 497.402057,217.360581 496.101595,216.817447 C494.801132,216.274313 493.646033,215.482573 492.636263,214.442203 C491.641791,213.417133 490.850051,212.166413 490.261018,210.690006 C489.671985,209.213599 489.377473,207.557447 489.377473,205.7215 C489.377473,202.187303 490.406353,199.29573 492.464143,197.046695 C494.521934,194.797661 497.21844,193.67316 500.553743,193.67316 C503.720751,193.67316 506.333111,194.740288 508.390901,196.874576 C510.448691,199.008864 511.477571,201.850714 511.477571,205.400211 Z M506.727083,205.446109 C506.727083,204.298643 506.612338,203.086171 506.382845,201.808658 C506.153351,200.531145 505.809116,199.448718 505.35013,198.561344 C504.860544,197.612771 504.217972,196.85163 503.422395,196.277896 C502.626818,195.704163 501.655311,195.417301 500.507845,195.417301 C499.329779,195.417301 498.323848,195.707988 497.490022,196.289371 C496.656196,196.870754 495.979201,197.666319 495.459016,198.67609 C494.969431,199.609363 494.625196,200.672666 494.426302,201.866031 C494.227407,203.059397 494.127962,204.214496 494.127962,205.331363 C494.127962,206.800121 494.246531,208.157936 494.483675,209.40485 C494.720818,210.651763 495.099476,211.764789 495.619661,212.743961 C496.139846,213.723132 496.793892,214.491924 497.581819,215.050357 C498.369746,215.608791 499.345078,215.888004 500.507845,215.888004 C502.420289,215.888004 503.934922,214.962395 505.05179,213.111148 C506.168657,211.259902 506.727083,208.704915 506.727083,205.446109 Z M553.52054,216.943668 L542.481966,216.943668 L542.481966,215.42902 C542.833855,215.39842 543.189565,215.367822 543.549104,215.337223 C543.908644,215.306624 544.226105,215.245426 544.501497,215.153629 C544.929884,215.015933 545.247345,214.774969 545.453889,214.430729 C545.660433,214.086489 545.763704,213.638983 545.763704,213.088199 L545.763704,201.407047 C545.763704,199.815893 545.400345,198.588122 544.673616,197.723697 C543.946887,196.859272 543.040402,196.427066 541.954134,196.427066 C541.204455,196.427066 540.500686,196.541811 539.842805,196.771305 C539.184925,197.000798 538.580601,197.322084 538.029817,197.735172 C537.58613,198.071762 537.215121,198.435121 536.91678,198.82526 C536.618439,199.215398 536.392774,199.540509 536.239778,199.800602 L536.239778,212.858707 C536.239778,213.394191 536.331574,213.834047 536.515169,214.178287 C536.698763,214.522527 537.0124,214.78644 537.456087,214.970035 C537.807976,215.107731 538.125438,215.211002 538.408479,215.27985 C538.691521,215.348698 539.06253,215.39842 539.521516,215.42902 L539.521516,216.943668 L528.712434,216.943668 L528.712434,215.42902 C529.064324,215.39842 529.404734,215.367822 529.733675,215.337223 C530.062615,215.306624 530.364777,215.245426 530.640169,215.153629 C531.068556,215.015933 531.386017,214.774969 531.592561,214.430729 C531.799105,214.086489 531.902376,213.638983 531.902376,213.088199 L531.902376,201.407047 C531.902376,199.815893 531.539017,198.588122 530.812288,197.723697 C530.085559,196.859272 529.179074,196.427066 528.092805,196.427066 C527.343127,196.427066 526.639358,196.545636 525.981477,196.782779 C525.323596,197.019922 524.719273,197.345033 524.168489,197.758121 C523.724802,198.094711 523.349968,198.47337 523.043977,198.894107 C522.737986,199.314845 522.508496,199.632306 522.355501,199.8465 L522.355501,212.812809 C522.355501,213.332993 522.462596,213.769024 522.67679,214.120914 C522.890984,214.472804 523.212269,214.740542 523.640657,214.924137 C523.961948,215.077132 524.290883,215.191877 524.627473,215.268375 C524.964064,215.344873 525.338897,215.39842 525.751985,215.42902 L525.751985,216.943668 L514.759309,216.943668 L514.759309,215.42902 C515.111199,215.39842 515.474558,215.367822 515.849397,215.337223 C516.224236,215.306624 516.549347,215.245426 516.824739,215.153629 C517.253127,215.015933 517.570588,214.774969 517.777132,214.430729 C517.983676,214.086489 518.086946,213.638983 518.086946,213.088199 L518.086946,199.020328 C518.086946,198.530742 517.976026,198.090887 517.754182,197.700748 C517.532339,197.310609 517.222528,196.977849 516.824739,196.702457 C516.534048,196.518862 516.174513,196.369694 515.746126,196.254947 C515.317738,196.140201 514.874058,196.067529 514.415071,196.03693 L514.415071,194.54523 L521.988313,194.040348 L522.309602,194.361637 L522.309602,197.597477 L522.470247,197.597477 C522.852736,197.214988 523.319365,196.763658 523.870149,196.243473 C524.420933,195.723288 524.933461,195.302556 525.407747,194.981266 C525.943231,194.614076 526.612577,194.30809 527.415804,194.063297 C528.21903,193.818504 529.087267,193.696109 530.02054,193.696109 C531.489297,193.696109 532.751492,194.090067 533.807161,194.877994 C534.86283,195.665921 535.620147,196.618304 536.079134,197.735172 C536.629918,197.199687 537.115671,196.729233 537.536409,196.323795 C537.957147,195.918357 538.511747,195.486151 539.200227,195.027164 C539.78161,194.629376 540.466255,194.30809 541.254182,194.063297 C542.04211,193.818504 542.917996,193.696109 543.881868,193.696109 C545.794312,193.696109 547.308946,194.323382 548.425813,195.577945 C549.542681,196.832509 550.101106,198.760224 550.101106,201.361148 L550.101106,212.858707 C550.101106,213.394191 550.192902,213.834047 550.376497,214.178287 C550.560092,214.522527 550.873728,214.78644 551.317415,214.970035 C551.669305,215.107731 552.017364,215.211002 552.361604,215.27985 C552.705844,215.348698 553.092152,215.39842 553.52054,215.42902 L553.52054,216.943668 Z M576.263216,211.619449 C575.314643,213.424797 574.044799,214.862933 572.453645,215.933902 C570.862492,217.004871 569.034222,217.540348 566.968782,217.540348 C565.148135,217.540348 563.55318,217.219062 562.18387,216.57648 C560.81456,215.933899 559.686234,215.061838 558.79886,213.96027 C557.911486,212.858702 557.24979,211.573558 556.813753,210.104801 C556.377715,208.636043 556.1597,207.083162 556.1597,205.446109 C556.1597,203.977352 556.393015,202.535391 556.859651,201.120182 C557.326288,199.704973 558.010932,198.431304 558.913606,197.299137 C559.785681,196.212868 560.868108,195.336982 562.160921,194.671451 C563.453733,194.005921 564.903344,193.67316 566.509798,193.67316 C568.16215,193.67316 569.577337,193.933249 570.755403,194.453434 C571.933469,194.973618 572.889677,195.685037 573.624055,196.587711 C574.327835,197.444486 574.851837,198.454242 575.196077,199.617008 C575.540317,200.779774 575.712434,202.041968 575.712434,203.403629 L575.712434,204.918277 L560.726595,204.918277 C560.726595,206.402334 560.868113,207.748675 561.151155,208.95734 C561.434197,210.166005 561.881702,211.229308 562.493684,212.147281 C563.090367,213.034655 563.870633,213.7346 564.834505,214.247135 C565.798377,214.75967 566.945826,215.015934 568.276888,215.015934 C569.638548,215.015934 570.812771,214.698473 571.799593,214.063541 C572.786414,213.428609 573.738797,212.284985 574.65677,210.632633 L576.263216,211.619449 Z M571.191438,202.990543 C571.191438,202.133768 571.118766,201.215808 570.973421,200.236637 C570.828075,199.257465 570.59476,198.438951 570.27347,197.78107 C569.92158,197.077291 569.439651,196.503566 568.827669,196.059879 C568.215687,195.616192 567.427771,195.394352 566.463899,195.394352 C564.857446,195.394352 563.52258,196.063697 562.459261,197.402408 C561.395941,198.741119 560.818392,200.603812 560.726595,202.990543 L571.191438,202.990543 Z M611.07718,202.003727 C611.76566,202.768704 612.274363,203.606342 612.603304,204.516666 C612.932244,205.42699 613.096712,206.486468 613.096712,207.695133 C613.096712,210.571449 612.033409,212.942845 609.90677,214.809391 C607.780132,216.675936 605.140998,217.609195 601.98929,217.609195 C600.535832,217.609195 599.082396,217.38353 597.628938,216.932193 C596.17548,216.480856 594.920936,215.933906 593.865266,215.291324 L592.87845,216.966617 L591.042512,216.966617 L590.721223,205.813297 L592.58011,205.813297 C592.962599,207.190257 593.410104,208.433327 593.922639,209.542545 C594.435175,210.651763 595.11217,211.688292 595.953645,212.652164 C596.749222,213.554838 597.678656,214.273906 598.741975,214.809391 C599.805295,215.344875 601.040715,215.612613 602.448274,215.612613 C603.503944,215.612613 604.425728,215.474919 605.213655,215.199527 C606.001582,214.924135 606.640329,214.534003 607.129915,214.029117 C607.619501,213.524232 607.98286,212.931383 608.220003,212.250553 C608.457146,211.569723 608.575716,210.785632 608.575716,209.898258 C608.575716,208.597796 608.208532,207.385324 607.474153,206.260807 C606.739774,205.136289 605.645873,204.283352 604.192415,203.701969 C603.197944,203.30418 602.058144,202.864325 600.772981,202.382389 C599.487819,201.900453 598.378617,201.445298 597.445345,201.01691 C595.609398,200.190734 594.182736,199.108307 593.165315,197.769596 C592.147895,196.430885 591.639192,194.682937 591.639192,192.525699 C591.639192,191.286435 591.891631,190.131336 592.396516,189.060367 C592.901402,187.989398 593.62047,187.03319 594.553743,186.191715 C595.441117,185.396138 596.489121,184.77269 597.697786,184.321354 C598.906451,183.870017 600.168645,183.644352 601.484407,183.644352 C602.983763,183.644352 604.326279,183.873841 605.511995,184.332828 C606.69771,184.791815 607.780138,185.327291 608.759309,185.939273 L609.700227,184.378727 L611.536165,184.378727 L611.719759,195.187809 L609.860872,195.187809 C609.524282,193.948545 609.145623,192.762847 608.724886,191.63068 C608.304148,190.498513 607.757197,189.473458 607.084016,188.555484 C606.426136,187.66811 605.622921,186.960516 604.674348,186.432682 C603.725776,185.904847 602.563027,185.640934 601.186067,185.640934 C599.732609,185.640934 598.493364,186.107563 597.468294,187.040836 C596.443224,187.974109 595.930696,189.113909 595.930696,190.46027 C595.930696,191.867829 596.259632,193.034402 596.917512,193.960025 C597.575393,194.885649 598.531601,195.64679 599.786165,196.243473 C600.903032,196.778957 602.000759,197.241762 603.079378,197.6319 C604.157996,198.022039 605.202175,198.438946 606.211946,198.882633 C607.129919,199.280421 608.013456,199.731751 608.862581,200.236637 C609.711706,200.741522 610.449899,201.330546 611.07718,202.003727 Z M627.605869,216.943668 L616.659091,216.943668 L616.659091,215.42902 C617.010981,215.39842 617.37434,215.367822 617.749179,215.337223 C618.124018,215.306624 618.449129,215.245426 618.724521,215.153629 C619.152909,215.015933 619.47037,214.774969 619.676914,214.430729 C619.883458,214.086489 619.986728,213.638983 619.986728,213.088199 L619.986728,199.112125 C619.986728,198.622539 619.875808,198.175034 619.653964,197.769596 C619.432121,197.364157 619.12231,197.023747 618.724521,196.748355 C618.43383,196.564761 618.013098,196.407943 617.462314,196.277896 C616.91153,196.14785 616.406652,196.067529 615.947666,196.03693 L615.947666,194.54523 L623.933994,194.040348 L624.255283,194.361637 L624.255283,212.812809 C624.255283,213.348293 624.358553,213.791974 624.565097,214.143863 C624.771641,214.495753 625.096752,214.755842 625.540439,214.924137 C625.877029,215.061833 626.205965,215.172753 626.527255,215.2569 C626.848546,215.341048 627.20808,215.39842 627.605869,215.42902 L627.605869,216.943668 Z M624.714267,185.113102 C624.714267,185.985176 624.427405,186.746318 623.853671,187.396549 C623.279938,188.04678 622.572344,188.371891 621.730869,188.371891 C620.950591,188.371891 620.273596,188.062079 619.699863,187.442447 C619.12613,186.822815 618.839267,186.115221 618.839267,185.319645 C618.839267,184.478169 619.12613,183.743801 619.699863,183.11652 C620.273596,182.489238 620.950591,182.175602 621.730869,182.175602 C622.602943,182.175602 623.318187,182.470114 623.876621,183.059146 C624.435054,183.648179 624.714267,184.332824 624.714267,185.113102 Z M655.374423,216.943668 L644.289951,216.943668 L644.289951,215.42902 C644.641841,215.39842 645.028149,215.367822 645.448886,215.337223 C645.869624,215.306624 646.217684,215.245426 646.493076,215.153629 C646.921463,215.015933 647.238924,214.774969 647.445468,214.430729 C647.652012,214.086489 647.755283,213.638983 647.755283,213.088199 L647.755283,201.452945 C647.755283,199.846492 647.376624,198.607247 646.619296,197.735172 C645.861968,196.863097 644.940184,196.427066 643.853916,196.427066 C643.043039,196.427066 642.301022,196.553286 641.627841,196.805729 C640.954661,197.058171 640.357987,197.367983 639.837802,197.735172 C639.332917,198.087062 638.93131,198.46572 638.632968,198.871158 C638.334627,199.276596 638.116612,199.601707 637.978916,199.8465 L637.978916,212.858707 C637.978916,213.378892 638.086011,213.807273 638.300205,214.143863 C638.514398,214.480454 638.835684,214.740542 639.264072,214.924137 C639.585363,215.077132 639.933422,215.191877 640.308261,215.268375 C640.6831,215.344873 641.069408,215.39842 641.467197,215.42902 L641.467197,216.943668 L630.382724,216.943668 L630.382724,215.42902 C630.734614,215.39842 631.097973,215.367822 631.472812,215.337223 C631.847651,215.306624 632.172762,215.245426 632.448154,215.153629 C632.876541,215.015933 633.194002,214.774969 633.400546,214.430729 C633.60709,214.086489 633.710361,213.638983 633.710361,213.088199 L633.710361,199.112125 C633.710361,198.59194 633.599441,198.113836 633.377597,197.677799 C633.155754,197.241761 632.845942,196.886052 632.448154,196.61066 C632.157462,196.427065 631.813228,196.293196 631.415439,196.209049 C631.017651,196.124901 630.589269,196.067529 630.130283,196.03693 L630.130283,194.54523 L637.657627,194.040348 L637.978916,194.361637 L637.978916,197.551578 L638.093662,197.551578 C638.460851,197.184389 638.919831,196.744533 639.470615,196.231998 C640.021399,195.719463 640.541576,195.302556 641.031162,194.981266 C641.597245,194.614076 642.270416,194.30809 643.050693,194.063297 C643.83097,193.818504 644.710682,193.696109 645.689853,193.696109 C647.86239,193.696109 649.472644,194.373105 650.520664,195.727115 C651.568683,197.081126 652.092685,198.882622 652.092685,201.131656 L652.092685,212.904605 C652.092685,213.44009 652.184481,213.872296 652.368076,214.201236 C652.55167,214.530177 652.865307,214.78644 653.308994,214.970035 C653.676183,215.123031 653.993644,215.230126 654.261386,215.291324 C654.529129,215.352522 654.900137,215.39842 655.374423,215.42902 L655.374423,216.943668 Z M668.616123,217.540348 C665.342018,217.540348 662.779381,216.454095 660.928134,214.281559 C659.076888,212.109022 658.151279,209.1945 658.151279,205.537906 C658.151279,203.946752 658.399893,202.458893 658.897129,201.074283 C659.394364,199.689673 660.117257,198.431304 661.06583,197.299137 C661.968503,196.212868 663.100654,195.336982 664.462314,194.671451 C665.823975,194.005921 667.308009,193.67316 668.914463,193.67316 C671.132898,193.67316 672.938219,194.204812 674.330478,195.268131 C675.722738,196.33145 676.418857,197.781061 676.418857,199.617008 C676.418857,200.381986 676.235265,201.058981 675.868076,201.648014 C675.500886,202.237047 674.896563,202.531559 674.055088,202.531559 C673.152414,202.531559 672.45247,202.302069 671.955234,201.843082 C671.457998,201.384095 671.209384,200.871568 671.209384,200.305484 C671.209384,199.617004 671.30118,198.909411 671.484775,198.182682 C671.66837,197.455953 671.775465,196.924301 671.806064,196.587711 C671.530672,196.113425 671.121415,195.795964 670.578281,195.635318 C670.035147,195.474673 669.449947,195.394352 668.822666,195.394352 C668.088287,195.394352 667.388343,195.55117 666.722812,195.864811 C666.057281,196.178451 665.410885,196.756001 664.783603,197.597477 C664.21752,198.362454 663.75854,199.395159 663.40665,200.695621 C663.05476,201.996083 662.878818,203.548965 662.878818,205.354312 C662.878818,208.20003 663.509915,210.521703 664.772129,212.3194 C666.034342,214.117098 667.690494,215.015934 669.740634,215.015934 C671.224691,215.015934 672.467762,214.656399 673.469882,213.93732 C674.472003,213.218241 675.401437,212.139639 676.258213,210.70148 L677.726963,211.665348 C676.717192,213.470695 675.38615,214.901182 673.733798,215.956852 C672.081446,217.012521 670.375572,217.540348 668.616123,217.540348 Z M699.597568,211.619449 C698.648996,213.424797 697.379151,214.862933 695.787998,215.933902 C694.196844,217.004871 692.368574,217.540348 690.303134,217.540348 C688.482487,217.540348 686.887532,217.219062 685.518222,216.57648 C684.148912,215.933899 683.020587,215.061838 682.133213,213.96027 C681.245838,212.858702 680.584142,211.573558 680.148105,210.104801 C679.712068,208.636043 679.494052,207.083162 679.494052,205.446109 C679.494052,203.977352 679.727367,202.535391 680.194004,201.120182 C680.66064,199.704973 681.345285,198.431304 682.247959,197.299137 C683.120033,196.212868 684.202461,195.336982 685.495273,194.671451 C686.788086,194.005921 688.237697,193.67316 689.84415,193.67316 C691.496502,193.67316 692.91169,193.933249 694.089755,194.453434 C695.267821,194.973618 696.224029,195.685037 696.958408,196.587711 C697.662187,197.444486 698.186189,198.454242 698.530429,199.617008 C698.874669,200.779774 699.046787,202.041968 699.046787,203.403629 L699.046787,204.918277 L684.060947,204.918277 C684.060947,206.402334 684.202466,207.748675 684.485507,208.95734 C684.768549,210.166005 685.216054,211.229308 685.828037,212.147281 C686.424719,213.034655 687.204985,213.7346 688.168857,214.247135 C689.132729,214.75967 690.280179,215.015934 691.61124,215.015934 C692.9729,215.015934 694.147124,214.698473 695.133945,214.063541 C696.120766,213.428609 697.073149,212.284985 697.991123,210.632633 L699.597568,211.619449 Z M694.525791,202.990543 C694.525791,202.133768 694.453119,201.215808 694.307773,200.236637 C694.162427,199.257465 693.929113,198.438951 693.607822,197.78107 C693.255932,197.077291 692.774003,196.503566 692.162021,196.059879 C691.550039,195.616192 690.762124,195.394352 689.798252,195.394352 C688.191798,195.394352 686.856932,196.063697 685.793613,197.402408 C684.730294,198.741119 684.152744,200.603812 684.060947,202.990543 L694.525791,202.990543 Z" id="Garden-&amp;-Home-Since" fill="#333333"></path>
            <text id="-" font-family="Georgia" font-size="45" font-weight="normal"></text>
            <path d="M723.494178,218.348953 L723.494178,215.097 L729.998084,215.097 L729.998084,189.432937 L723.494178,191.058914 L723.494178,187.71907 L734.34867,185.016434 L734.34867,215.097 L740.852577,215.097 L740.852577,218.348953 L723.494178,218.348953 Z M750.300819,218.151199 L750.300819,214.481766 C753.054739,215.433919 755.398465,215.909988 757.332069,215.909988 C760.027395,215.909988 762.133087,214.76376 763.649207,212.471268 C765.165328,210.178776 765.923377,206.98911 765.923377,202.902176 C763.726101,205.61215 761.228567,206.967117 758.430702,206.967117 C755.69143,206.967117 753.369676,205.960047 751.46537,203.945877 C749.561063,201.931707 748.608924,199.474456 748.608924,196.574051 C748.608924,193.248839 749.623318,190.491298 751.652137,188.301346 C753.680956,186.111393 756.233421,185.016434 759.309608,185.016434 C762.839899,185.016434 765.623074,186.433656 767.659217,189.268143 C769.69536,192.102629 770.713416,195.980764 770.713416,200.902664 C770.713416,206.498395 769.471974,210.940489 766.989051,214.22908 C764.506129,217.517671 761.148008,219.161941 756.914588,219.161941 C755.215361,219.161941 753.010793,218.825031 750.300819,218.151199 Z M752.937537,195.717117 C752.937537,198.236661 753.497835,200.221504 754.618446,201.671707 C755.739057,203.12191 757.273465,203.847 759.221717,203.847 C761.052781,203.847 762.616486,203.224448 763.912879,201.979324 C765.209272,200.734201 765.857459,199.232751 765.857459,197.47493 C765.857459,194.706361 765.231245,192.476159 763.978797,190.784256 C762.72635,189.092353 761.082079,188.246414 759.045936,188.246414 C757.156278,188.246414 755.665814,188.916573 754.5745,190.256912 C753.483186,191.597251 752.937537,193.417301 752.937537,195.717117 Z M780.403358,218.348953 C780.828165,215.814761 781.432407,213.624841 782.216102,211.779129 C782.999797,209.933417 784.387723,207.399262 786.37992,204.17659 L795.256873,189.894363 L778.513709,189.894363 L778.513709,185.829422 L799.387733,185.829422 L799.387733,189.894363 C791.05273,202.184464 786.38725,211.669232 785.391151,218.348953 L780.403358,218.348953 Z M809.824745,201.495926 C811.890185,198.815248 814.490256,197.47493 817.625037,197.47493 C820.466849,197.47493 822.792265,198.416082 824.601356,200.298416 C826.410447,202.18075 827.314979,204.594056 827.314979,207.538406 C827.314979,210.922212 826.300585,213.705388 824.271766,215.888016 C822.242947,218.070644 819.66851,219.161941 816.548377,219.161941 C812.959492,219.161941 810.154344,217.719085 808.13285,214.833328 C806.111356,211.947572 805.100623,207.941264 805.100623,202.814285 C805.100623,197.174609 806.261501,192.79477 808.583289,189.674637 C810.905078,186.554504 814.175309,184.994461 818.39408,184.994461 C820.327684,184.994461 822.744652,185.404613 825.645057,186.22493 L825.645057,190.004227 C822.583518,188.832346 820.078661,188.246414 818.130409,188.246414 C812.593272,188.246414 809.824745,192.662874 809.824745,201.495926 Z M822.964393,208.505203 C822.964393,206.044253 822.41142,204.110679 821.305457,202.704422 C820.199495,201.298165 818.665086,200.595047 816.702186,200.595047 C814.871122,200.595047 813.296431,201.210275 811.978065,202.44075 C810.659699,203.671225 810.000526,205.150702 810.000526,206.879227 C810.000526,209.60385 810.62674,211.790107 811.879188,213.438064 C813.131636,215.086022 814.790555,215.909988 816.855995,215.909988 C818.716355,215.909988 820.199495,215.239829 821.305457,213.89949 C822.41142,212.559152 822.964393,210.761074 822.964393,208.505203 Z" id="1976" fill="#333333"></path>
        </g>
    </g>
</svg>